<svg width="153" height="44" viewBox="0 0 153 44" fill="none" xmlns="http://www.w3.org/2000/svg">
<path d="M151.462 38.9257C151.462 41.2705 149.523 43.1698 147.124 43.1698H5.18902C2.79192 43.1698 0.846191 41.2705 0.846191 38.9257V5.0799C0.846191 2.73619 2.79192 0.8302 5.18902 0.8302H147.123C149.523 0.8302 151.46 2.73619 151.46 5.0799L151.462 38.9257Z" fill="black"/>
<path d="M33.9874 21.7626C33.9547 18.2173 36.9647 16.4925 37.1024 16.4122C35.3976 13.9889 32.7554 13.6578 31.8269 13.6314C29.6077 13.4037 27.4551 14.9261 26.3246 14.9261C25.1716 14.9261 23.4308 13.6534 21.5546 13.6908C19.1402 13.7271 16.8815 15.09 15.6428 17.2064C13.0863 21.5217 14.9929 27.8632 17.4423 31.3513C18.6675 33.0596 20.0992 34.967 21.9731 34.8999C23.8065 34.8262 24.4913 33.7603 26.7037 33.7603C28.8958 33.7603 29.5389 34.8999 31.4501 34.857C33.4176 34.8262 34.6564 33.141 35.8388 31.4173C37.2547 29.4593 37.8233 27.531 37.8458 27.432C37.7996 27.4166 34.0246 26.0119 33.9874 21.7626Z" fill="white"/>
<path d="M30.3771 11.3368C31.3632 10.1345 32.0378 8.49877 31.8506 6.83887C30.4234 6.90047 28.6386 7.80137 27.6108 8.97727C26.7014 10.0135 25.8891 11.7119 26.099 13.3091C27.7022 13.4257 29.3482 12.5204 30.3771 11.3368Z" fill="white"/>
<path d="M55.3401 11.0096C55.3401 12.3043 54.9418 13.2789 54.1464 13.9334C53.4097 14.5373 52.3627 14.8398 51.0066 14.8398C50.3342 14.8398 49.7588 14.8112 49.2771 14.754V7.67987C49.9055 7.58087 50.5824 7.53027 51.3135 7.53027C52.6053 7.53027 53.5789 7.80417 54.2356 8.35197C54.9712 8.97127 55.3401 9.85677 55.3401 11.0096ZM54.0934 11.0415C54.0934 10.2022 53.8655 9.55867 53.4097 9.10987C52.9539 8.66217 52.2883 8.43777 51.4117 8.43777C51.0394 8.43777 50.7223 8.46197 50.4595 8.51257V13.8905C50.605 13.9125 50.8713 13.9224 51.2582 13.9224C52.1631 13.9224 52.8614 13.6771 53.3533 13.1865C53.8452 12.6959 54.0934 11.9809 54.0934 11.0415Z" fill="white"/>
<path d="M61.9494 12.1405C61.9494 12.938 61.7159 13.5914 61.2488 14.104C60.7591 14.6309 60.1104 14.8938 59.3004 14.8938C58.5197 14.8938 57.898 14.6419 57.4343 14.1359C56.9718 13.631 56.7405 12.9941 56.7405 12.2263C56.7405 11.4233 56.9785 10.7644 57.4569 10.2529C57.9352 9.74141 58.5783 9.48511 59.3884 9.48511C60.1691 9.48511 60.7964 9.73701 61.2714 10.2419C61.7226 10.7325 61.9494 11.3661 61.9494 12.1405ZM60.723 12.1779C60.723 11.6994 60.617 11.2891 60.406 10.947C60.1578 10.5334 59.8047 10.3266 59.3455 10.3266C58.8705 10.3266 58.5095 10.5334 58.2613 10.947C58.0492 11.2891 57.9443 11.706 57.9443 12.1988C57.9443 12.6773 58.0503 13.0876 58.2613 13.4297C58.5174 13.8433 58.8739 14.0501 59.3342 14.0501C59.7855 14.0501 60.1398 13.84 60.3947 13.4187C60.6136 13.07 60.723 12.6564 60.723 12.1779Z" fill="white"/>
<path d="M70.8143 9.59058L69.1502 14.776H68.0671L67.3778 12.5243C67.2029 11.9622 67.0607 11.4034 66.9502 10.849H66.9287C66.8261 11.4188 66.6839 11.9765 66.5012 12.5243L65.7689 14.776H64.6735L63.1086 9.59058H64.3237L64.925 12.0557C65.0706 12.6387 65.1902 13.1942 65.2861 13.72H65.3075C65.3955 13.2866 65.541 12.7344 65.7464 12.0667L66.5012 9.59168H67.4646L68.1878 12.0139C68.3627 12.6046 68.5048 13.1733 68.6143 13.7211H68.647C68.7271 13.1876 68.8478 12.6189 69.008 12.0139L69.6534 9.59168H70.8143V9.59058Z" fill="white"/>
<path d="M76.9437 14.7761H75.7614V11.8061C75.7614 10.8909 75.4048 10.4333 74.6896 10.4333C74.3387 10.4333 74.0555 10.5587 73.8355 10.8106C73.6178 11.0625 73.5072 11.3595 73.5072 11.6994V14.775H72.3248V11.0724C72.3248 10.617 72.3102 10.1231 72.282 9.58851H73.3211L73.3763 10.3992H73.4091C73.5467 10.1473 73.752 9.93941 74.0217 9.77331C74.3421 9.57971 74.7008 9.48181 75.0935 9.48181C75.5899 9.48181 76.0028 9.63801 76.3311 9.95151C76.7395 10.3354 76.9437 10.9085 76.9437 11.6697V14.7761Z" fill="white"/>
<path d="M80.2037 14.776H79.0225V7.2113H80.2037V14.776Z" fill="white"/>
<path d="M87.1643 12.1405C87.1643 12.938 86.9307 13.5914 86.4636 14.104C85.974 14.6309 85.3241 14.8938 84.5152 14.8938C83.7334 14.8938 83.1117 14.6419 82.6492 14.1359C82.1866 13.631 81.9553 12.9941 81.9553 12.2263C81.9553 11.4233 82.1934 10.7644 82.6717 10.2529C83.1501 9.74141 83.7932 9.48511 84.6021 9.48511C85.3839 9.48511 86.0101 9.73701 86.4862 10.2419C86.9375 10.7325 87.1643 11.3661 87.1643 12.1405ZM85.9368 12.1779C85.9368 11.6994 85.8307 11.2891 85.6197 10.947C85.3727 10.5334 85.0184 10.3266 84.5603 10.3266C84.0842 10.3266 83.7232 10.5334 83.4761 10.947C83.264 11.2891 83.1591 11.706 83.1591 12.1988C83.1591 12.6773 83.2652 13.0876 83.4761 13.4297C83.7322 13.8433 84.0888 14.0501 84.5491 14.0501C85.0004 14.0501 85.3535 13.84 85.6084 13.4187C85.8284 13.07 85.9368 12.6564 85.9368 12.1779Z" fill="white"/>
<path d="M92.8859 14.7761H91.8243L91.7363 14.1788H91.7036C91.3403 14.6551 90.8224 14.8938 90.15 14.8938C89.648 14.8938 89.2418 14.7365 88.9361 14.4241C88.6585 14.1403 88.5198 13.7872 88.5198 13.3681C88.5198 12.7345 88.7905 12.2516 89.3355 11.9172C89.8793 11.5828 90.6442 11.4189 91.6291 11.4266V11.3298C91.6291 10.6467 91.2613 10.3057 90.5246 10.3057C90 10.3057 89.5374 10.4344 89.138 10.6896L88.8977 9.93281C89.3919 9.63471 90.0022 9.48511 90.722 9.48511C92.112 9.48511 92.8092 10.2001 92.8092 11.6301V13.5397C92.8092 14.0578 92.8352 14.4703 92.8859 14.7761ZM91.6584 12.9941V12.1944C90.3542 12.1724 89.7021 12.5211 89.7021 13.2394C89.7021 13.51 89.7766 13.7124 89.9289 13.8477C90.0812 13.983 90.2753 14.0501 90.5065 14.0501C90.766 14.0501 91.0086 13.9698 91.2297 13.8103C91.452 13.6497 91.5885 13.4462 91.6393 13.1965C91.6517 13.1404 91.6584 13.0722 91.6584 12.9941Z" fill="white"/>
<path d="M99.6057 14.776H98.5565L98.5012 13.9433H98.4685C98.1334 14.5769 97.5625 14.8937 96.7604 14.8937C96.1196 14.8937 95.5859 14.6484 95.1629 14.1578C94.7398 13.6672 94.5288 13.0303 94.5288 12.2482C94.5288 11.4089 94.7578 10.7291 95.2181 10.2099C95.6638 9.7259 96.2098 9.4839 96.8597 9.4839C97.5738 9.4839 98.0736 9.7182 98.3579 10.1879H98.3805V7.2113H99.564V13.379C99.564 13.8839 99.5775 14.3492 99.6057 14.776ZM98.3805 12.5892V11.7246C98.3805 11.575 98.3692 11.454 98.3478 11.3616C98.2812 11.0844 98.1379 10.8512 97.9202 10.6631C97.7002 10.475 97.4351 10.3804 97.1293 10.3804C96.6882 10.3804 96.343 10.5509 96.0891 10.893C95.8375 11.2351 95.71 11.6718 95.71 12.2053C95.71 12.7179 95.8308 13.1337 96.0733 13.4538C96.3294 13.7948 96.6746 13.9653 97.1067 13.9653C97.4949 13.9653 97.8051 13.8234 98.0409 13.5385C98.2688 13.2756 98.3805 12.9588 98.3805 12.5892Z" fill="white"/>
<path d="M109.717 12.1405C109.717 12.938 109.484 13.5914 109.017 14.104C108.527 14.6309 107.88 14.8938 107.068 14.8938C106.289 14.8938 105.667 14.6419 105.202 14.1359C104.74 13.631 104.509 12.9941 104.509 12.2263C104.509 11.4233 104.747 10.7644 105.225 10.2529C105.703 9.74141 106.346 9.48511 107.158 9.48511C107.937 9.48511 108.566 9.73701 109.039 10.2419C109.491 10.7325 109.717 11.3661 109.717 12.1405ZM108.492 12.1779C108.492 11.6994 108.386 11.2891 108.175 10.947C107.926 10.5334 107.574 10.3266 107.114 10.3266C106.64 10.3266 106.279 10.5334 106.029 10.947C105.817 11.2891 105.712 11.706 105.712 12.1988C105.712 12.6773 105.818 13.0876 106.029 13.4297C106.285 13.8433 106.642 14.0501 107.102 14.0501C107.554 14.0501 107.909 13.84 108.164 13.4187C108.382 13.07 108.492 12.6564 108.492 12.1779Z" fill="white"/>
<path d="M116.075 14.7761H114.894V11.8061C114.894 10.8909 114.537 10.4333 113.821 10.4333C113.47 10.4333 113.187 10.5587 112.968 10.8106C112.749 11.0625 112.64 11.3595 112.64 11.6994V14.775H111.456V11.0724C111.456 10.617 111.443 10.1231 111.414 9.58851H112.452L112.508 10.3992H112.54C112.679 10.1473 112.884 9.93941 113.153 9.77331C113.474 9.57971 113.832 9.48181 114.226 9.48181C114.721 9.48181 115.134 9.63801 115.462 9.95151C115.872 10.3354 116.075 10.9085 116.075 11.6697V14.7761Z" fill="white"/>
<path d="M124.032 10.4542H122.73V12.9732C122.73 13.6134 122.961 13.9335 123.419 13.9335C123.631 13.9335 123.807 13.9159 123.946 13.8796L123.976 14.7541C123.743 14.8399 123.436 14.8828 123.058 14.8828C122.591 14.8828 122.228 14.7442 121.965 14.467C121.701 14.1898 121.57 13.7234 121.57 13.0689V10.4542H120.792V9.59072H121.57V8.64032L122.728 8.29932V9.58962H124.03V10.4542H124.032Z" fill="white"/>
<path d="M130.292 14.776H129.109V11.828C129.109 10.8985 128.752 10.4332 128.038 10.4332C127.49 10.4332 127.115 10.7027 126.91 11.2417C126.875 11.355 126.855 11.4936 126.855 11.6564V14.7749H125.673V7.2113H126.855V10.3364H126.877C127.249 9.7677 127.783 9.4839 128.475 9.4839C128.964 9.4839 129.369 9.6401 129.691 9.9536C130.091 10.3441 130.292 10.9249 130.292 11.6927V14.776Z" fill="white"/>
<path d="M136.748 11.938C136.748 12.1448 136.732 12.3186 136.704 12.4605H133.158C133.174 12.9731 133.343 13.3636 133.671 13.6342C133.971 13.8762 134.358 13.9972 134.832 13.9972C135.357 13.9972 135.835 13.9158 136.266 13.7519L136.451 14.5527C135.947 14.7661 135.353 14.8728 134.666 14.8728C133.843 14.8728 133.194 14.6363 132.725 14.1633C132.253 13.6903 132.02 13.0556 132.02 12.2592C132.02 11.4771 132.237 10.8259 132.676 10.3067C133.134 9.7523 133.754 9.4751 134.535 9.4751C135.3 9.4751 135.881 9.7523 136.274 10.3067C136.591 10.7467 136.748 11.2912 136.748 11.938ZM135.62 11.6399C135.629 11.2978 135.551 11.003 135.391 10.7544C135.185 10.4343 134.873 10.2737 134.45 10.2737C134.064 10.2737 133.749 10.4299 133.509 10.7434C133.312 10.9931 133.196 11.2912 133.158 11.6399H135.62Z" fill="white"/>
<path d="M60.5265 34.6549H57.9643L56.5608 30.355H51.6825L50.3455 34.6549H47.8511L52.6843 20.0161H55.6695L60.5265 34.6549ZM56.1377 28.551L54.8685 24.7285C54.7343 24.338 54.4827 23.4184 54.1115 21.9708H54.0664C53.9186 22.5934 53.6805 23.513 53.3533 24.7285L52.1067 28.551H56.1377Z" fill="white"/>
<path d="M72.9567 29.2471C72.9567 31.0423 72.4592 32.4613 71.4641 33.503C70.5728 34.4303 69.4661 34.8934 68.1449 34.8934C66.7189 34.8934 65.6945 34.394 65.0706 33.3952H65.0255V38.9557H62.6201V27.574C62.6201 26.4454 62.5897 25.2871 62.531 24.0991H64.6464L64.7806 25.7722H64.8258C65.6279 24.5116 66.8453 23.8824 68.4789 23.8824C69.756 23.8824 70.8222 24.3741 71.6751 25.3586C72.5303 26.3442 72.9567 27.64 72.9567 29.2471ZM70.5063 29.3329C70.5063 28.3055 70.2694 27.4585 69.7933 26.7919C69.2732 26.0967 68.5748 25.7491 67.6993 25.7491C67.1059 25.7491 66.5666 25.9427 66.0848 26.3244C65.602 26.7094 65.2861 27.2121 65.1383 27.8347C65.0638 28.1251 65.0266 28.3627 65.0266 28.5497V30.3097C65.0266 31.0775 65.268 31.7254 65.7509 32.2545C66.2338 32.7836 66.8611 33.0476 67.6327 33.0476C68.5387 33.0476 69.2438 32.7066 69.7481 32.0268C70.2536 31.3459 70.5063 30.4483 70.5063 29.3329Z" fill="white"/>
<path d="M85.4078 29.2471C85.4078 31.0423 84.9102 32.4613 83.914 33.503C83.0239 34.4303 81.9171 34.8934 80.596 34.8934C79.1699 34.8934 78.1455 34.394 77.5227 33.3952H77.4776V38.9557H75.0723V27.574C75.0723 26.4454 75.0418 25.2871 74.9832 24.0991H77.0985L77.2328 25.7722H77.2779C78.0789 24.5116 79.2963 23.8824 80.9311 23.8824C82.2071 23.8824 83.2732 24.3741 84.1284 25.3586C84.9802 26.3442 85.4078 27.64 85.4078 29.2471ZM82.9573 29.3329C82.9573 28.3055 82.7193 27.4585 82.2432 26.7919C81.723 26.0967 81.027 25.7491 80.1503 25.7491C79.5558 25.7491 79.0176 25.9427 78.5347 26.3244C78.0519 26.7094 77.7371 27.2121 77.5893 27.8347C77.516 28.1251 77.4776 28.3627 77.4776 28.5497V30.3097C77.4776 31.0775 77.719 31.7254 78.1997 32.2545C78.6825 32.7825 79.3098 33.0476 80.0838 33.0476C80.9897 33.0476 81.6949 32.7066 82.1992 32.0268C82.7046 31.3459 82.9573 30.4483 82.9573 29.3329Z" fill="white"/>
<path d="M99.3301 30.5496C99.3301 31.7948 98.8867 32.8079 97.9966 33.59C97.0184 34.4447 95.6567 34.8715 93.9068 34.8715C92.2912 34.8715 90.996 34.5679 90.0156 33.9596L90.573 32.0049C91.629 32.6275 92.7876 32.9399 94.0501 32.9399C94.956 32.9399 95.6612 32.7397 96.1677 32.3415C96.672 31.9433 96.9236 31.4087 96.9236 30.7421C96.9236 30.1481 96.716 29.6476 96.2997 29.2417C95.8857 28.8358 95.1941 28.4585 94.2283 28.1098C91.5996 27.1539 90.2864 25.7536 90.2864 23.9122C90.2864 22.7088 90.7467 21.7221 91.6685 20.9543C92.5868 20.1854 93.812 19.8015 95.3441 19.8015C96.7104 19.8015 97.8454 20.0336 98.7513 20.4967L98.15 22.4085C97.3038 21.9597 96.3471 21.7353 95.2764 21.7353C94.4303 21.7353 93.7692 21.9388 93.2953 22.3436C92.8948 22.7055 92.694 23.1466 92.694 23.6691C92.694 24.2477 92.923 24.7262 93.3833 25.1024C93.7838 25.45 94.5115 25.8262 95.5675 26.2321C96.8593 26.7392 97.8081 27.3321 98.4185 28.0119C99.0266 28.6895 99.3301 29.5376 99.3301 30.5496Z" fill="white"/>
<path d="M107.283 25.8591H104.631V30.984C104.631 32.2875 105.098 32.9387 106.035 32.9387C106.465 32.9387 106.821 32.9024 107.103 32.8298L107.17 34.6107C106.696 34.7834 106.072 34.8703 105.299 34.8703C104.349 34.8703 103.607 34.5876 103.071 34.0233C102.537 33.4579 102.269 32.5097 102.269 31.1776V25.8569H100.689V24.0969H102.269V22.1642L104.631 21.469V24.0969H107.283V25.8591Z" fill="white"/>
<path d="M119.246 29.29C119.246 30.9125 118.77 32.2446 117.82 33.2863C116.824 34.3588 115.501 34.8934 113.853 34.8934C112.265 34.8934 111 34.3797 110.057 33.3523C109.113 32.3249 108.642 31.028 108.642 29.4649C108.642 27.8292 109.127 26.4894 110.101 25.4477C111.072 24.4049 112.383 23.8835 114.031 23.8835C115.62 23.8835 116.898 24.3972 117.863 25.4257C118.786 26.4234 119.246 27.7115 119.246 29.29ZM116.75 29.3659C116.75 28.3924 116.537 27.5575 116.105 26.8612C115.601 26.0186 114.88 25.5984 113.946 25.5984C112.979 25.5984 112.244 26.0197 111.74 26.8612C111.308 27.5586 111.095 28.4067 111.095 29.4099C111.095 30.3834 111.308 31.2183 111.74 31.9135C112.26 32.7561 112.987 33.1763 113.924 33.1763C114.842 33.1763 115.563 32.7473 116.083 31.8915C116.527 31.182 116.75 30.3383 116.75 29.3659Z" fill="white"/>
<path d="M127.062 26.1616C126.824 26.1187 126.571 26.0967 126.304 26.0967C125.458 26.0967 124.804 26.408 124.344 27.0317C123.943 27.5817 123.742 28.2769 123.742 29.1162V34.6547H121.338L121.361 27.4233C121.361 26.2067 121.33 25.099 121.27 24.1002H123.365L123.453 26.1198H123.52C123.774 25.4257 124.174 24.8669 124.723 24.4478C125.258 24.0705 125.837 23.8824 126.461 23.8824C126.683 23.8824 126.884 23.8978 127.062 23.9253V26.1616Z" fill="white"/>
<path d="M137.822 28.8776C137.822 29.2978 137.794 29.652 137.734 29.9413H130.518C130.546 30.9841 130.895 31.7816 131.565 32.3316C132.173 32.8233 132.959 33.0697 133.925 33.0697C134.993 33.0697 135.968 32.9036 136.845 32.5703L137.222 34.1983C136.197 34.6339 134.988 34.8506 133.592 34.8506C131.913 34.8506 130.596 34.3688 129.637 33.4063C128.68 32.4438 128.2 31.1513 128.2 29.5299C128.2 27.9382 128.646 26.6127 129.538 25.5556C130.473 24.427 131.735 23.8627 133.324 23.8627C134.884 23.8627 136.065 24.427 136.867 25.5556C137.502 26.4521 137.822 27.5609 137.822 28.8776ZM135.528 28.2693C135.544 27.5741 135.387 26.9735 135.061 26.4664C134.645 25.8141 134.005 25.4885 133.144 25.4885C132.358 25.4885 131.718 25.8064 131.23 26.4444C130.829 26.9515 130.591 27.5598 130.518 28.2682H135.528V28.2693Z" fill="white"/>
</svg>
