<svg width="153" height="44" viewBox="0 0 153 44" fill="none" xmlns="http://www.w3.org/2000/svg">
<path d="M151.654 38.9257C151.654 41.2705 149.715 43.1698 147.317 43.1698H5.3814C2.98431 43.1698 1.03857 41.2705 1.03857 38.9257V5.0799C1.03857 2.73619 2.98431 0.8302 5.3814 0.8302H147.316C149.715 0.8302 151.653 2.73619 151.653 5.0799L151.654 38.9257Z" fill="white"/>
<path d="M34.1798 21.7626C34.147 18.2173 37.1571 16.4925 37.2947 16.4122C35.59 13.9889 32.9478 13.6578 32.0193 13.6314C29.8001 13.4037 27.6475 14.9261 26.517 14.9261C25.364 14.9261 23.6232 13.6534 21.7469 13.6908C19.3326 13.7271 17.0739 15.09 15.8352 17.2064C13.2786 21.5217 15.1853 27.8632 17.6346 31.3513C18.8599 33.0596 20.2916 34.967 22.1655 34.8999C23.9988 34.8262 24.6837 33.7603 26.8961 33.7603C29.0882 33.7603 29.7313 34.8999 31.6424 34.857C33.61 34.8262 34.8488 33.141 36.0312 31.4173C37.447 29.4593 38.0157 27.531 38.0382 27.432C37.992 27.4166 34.217 26.0119 34.1798 21.7626Z" fill="#002478"/>
<path d="M30.5695 11.3368C31.5556 10.1345 32.2302 8.49877 32.0429 6.83887C30.6158 6.90047 28.8309 7.80137 27.8032 8.97727C26.8938 10.0135 26.0815 11.7119 26.2914 13.3091C27.8945 13.4257 29.5406 12.5204 30.5695 11.3368Z" fill="#002478"/>
<path d="M55.5325 11.0096C55.5325 12.3043 55.1342 13.2789 54.3388 13.9334C53.6021 14.5373 52.5551 14.8398 51.199 14.8398C50.5266 14.8398 49.9512 14.8112 49.4695 14.754V7.67987C50.0979 7.58087 50.7748 7.53027 51.5059 7.53027C52.7977 7.53027 53.7713 7.80417 54.4279 8.35197C55.1635 8.97127 55.5325 9.85677 55.5325 11.0096ZM54.2858 11.0415C54.2858 10.2022 54.0579 9.55867 53.6021 9.10987C53.1463 8.66217 52.4807 8.43777 51.6041 8.43777C51.2317 8.43777 50.9147 8.46197 50.6518 8.51257V13.8905C50.7974 13.9125 51.0636 13.9224 51.4506 13.9224C52.3554 13.9224 53.0538 13.6771 53.5457 13.1865C54.0376 12.6959 54.2858 11.9809 54.2858 11.0415Z" fill="#002478"/>
<path d="M62.1418 12.1405C62.1418 12.938 61.9082 13.5914 61.4412 14.104C60.9515 14.6309 60.3028 14.8938 59.4928 14.8938C58.712 14.8938 58.0904 14.6419 57.6267 14.1359C57.1641 13.631 56.9329 12.9941 56.9329 12.2263C56.9329 11.4233 57.1709 10.7644 57.6493 10.2529C58.1276 9.74141 58.7707 9.48511 59.5808 9.48511C60.3615 9.48511 60.9888 9.73701 61.4637 10.2419C61.915 10.7325 62.1418 11.3661 62.1418 12.1405ZM60.9154 12.1779C60.9154 11.6994 60.8094 11.2891 60.5984 10.947C60.3502 10.5334 59.9971 10.3266 59.5379 10.3266C59.0629 10.3266 58.7019 10.5334 58.4537 10.947C58.2416 11.2891 58.1367 11.706 58.1367 12.1988C58.1367 12.6773 58.2427 13.0876 58.4537 13.4297C58.7098 13.8433 59.0663 14.0501 59.5266 14.0501C59.9779 14.0501 60.3321 13.84 60.5871 13.4187C60.806 13.07 60.9154 12.6564 60.9154 12.1779Z" fill="#002478"/>
<path d="M71.0067 9.59058L69.3426 14.776H68.2595L67.5702 12.5243C67.3953 11.9622 67.2531 11.4034 67.1426 10.849H67.1211C67.0185 11.4188 66.8763 11.9765 66.6935 12.5243L65.9613 14.776H64.8658L63.301 9.59058H64.5161L65.1174 12.0557C65.263 12.6387 65.3826 13.1942 65.4785 13.72H65.4999C65.5879 13.2866 65.7334 12.7344 65.9388 12.0667L66.6935 9.59168H67.657L68.3802 12.0139C68.5551 12.6046 68.6972 13.1733 68.8067 13.7211H68.8394C68.9195 13.1876 69.0402 12.6189 69.2004 12.0139L69.8457 9.59168H71.0067V9.59058Z" fill="#002478"/>
<path d="M77.1361 14.7761H75.9537V11.8061C75.9537 10.8909 75.5972 10.4333 74.8819 10.4333C74.5311 10.4333 74.2479 10.5587 74.0279 10.8106C73.8102 11.0625 73.6996 11.3595 73.6996 11.6994V14.775H72.5172V11.0724C72.5172 10.617 72.5026 10.1231 72.4744 9.58851H73.5134L73.5687 10.3992H73.6014C73.7391 10.1473 73.9444 9.93941 74.2141 9.77331C74.5345 9.57971 74.8932 9.48181 75.2858 9.48181C75.7823 9.48181 76.1952 9.63801 76.5235 9.95151C76.9319 10.3354 77.1361 10.9085 77.1361 11.6697V14.7761Z" fill="#002478"/>
<path d="M80.3961 14.776H79.2148V7.2113H80.3961V14.776Z" fill="#002478"/>
<path d="M87.3566 12.1405C87.3566 12.938 87.1231 13.5914 86.656 14.104C86.1664 14.6309 85.5165 14.8938 84.7076 14.8938C83.9258 14.8938 83.3041 14.6419 82.8415 14.1359C82.379 13.631 82.1477 12.9941 82.1477 12.2263C82.1477 11.4233 82.3858 10.7644 82.8641 10.2529C83.3425 9.74141 83.9856 9.48511 84.7945 9.48511C85.5763 9.48511 86.2025 9.73701 86.6786 10.2419C87.1299 10.7325 87.3566 11.3661 87.3566 12.1405ZM86.1291 12.1779C86.1291 11.6994 86.0231 11.2891 85.8121 10.947C85.565 10.5334 85.2108 10.3266 84.7527 10.3266C84.2766 10.3266 83.9156 10.5334 83.6685 10.947C83.4564 11.2891 83.3515 11.706 83.3515 12.1988C83.3515 12.6773 83.4576 13.0876 83.6685 13.4297C83.9246 13.8433 84.2811 14.0501 84.7415 14.0501C85.1927 14.0501 85.5459 13.84 85.8008 13.4187C86.0208 13.07 86.1291 12.6564 86.1291 12.1779Z" fill="#002478"/>
<path d="M93.0783 14.7761H92.0167L91.9287 14.1788H91.8959C91.5327 14.6551 91.0148 14.8938 90.3424 14.8938C89.8404 14.8938 89.4342 14.7365 89.1285 14.4241C88.8509 14.1403 88.7122 13.7872 88.7122 13.3681C88.7122 12.7345 88.9829 12.2516 89.5278 11.9172C90.0716 11.5828 90.8366 11.4189 91.8215 11.4266V11.3298C91.8215 10.6467 91.4537 10.3057 90.717 10.3057C90.1924 10.3057 89.7298 10.4344 89.3304 10.6896L89.0901 9.93281C89.5843 9.63471 90.1946 9.48511 90.9144 9.48511C92.3044 9.48511 93.0016 10.2001 93.0016 11.6301V13.5397C93.0016 14.0578 93.0275 14.4703 93.0783 14.7761ZM91.8508 12.9941V12.1944C90.5466 12.1724 89.8945 12.5211 89.8945 13.2394C89.8945 13.51 89.969 13.7124 90.1213 13.8477C90.2736 13.983 90.4676 14.0501 90.6989 14.0501C90.9584 14.0501 91.201 13.9698 91.4221 13.8103C91.6444 13.6497 91.7809 13.4462 91.8316 13.1965C91.844 13.1404 91.8508 13.0722 91.8508 12.9941Z" fill="#002478"/>
<path d="M99.7981 14.776H98.7489L98.6936 13.9433H98.6609C98.3258 14.5769 97.7549 14.8937 96.9528 14.8937C96.312 14.8937 95.7783 14.6484 95.3552 14.1578C94.9322 13.6672 94.7212 13.0303 94.7212 12.2482C94.7212 11.4089 94.9502 10.7291 95.4105 10.2099C95.8562 9.7259 96.4022 9.4839 97.0521 9.4839C97.7662 9.4839 98.266 9.7182 98.5503 10.1879H98.5729V7.2113H99.7564V13.379C99.7564 13.8839 99.7699 14.3492 99.7981 14.776ZM98.5729 12.5892V11.7246C98.5729 11.575 98.5616 11.454 98.5402 11.3616C98.4736 11.0844 98.3303 10.8512 98.1126 10.6631C97.8926 10.475 97.6274 10.3804 97.3217 10.3804C96.8806 10.3804 96.5353 10.5509 96.2815 10.893C96.0299 11.2351 95.9024 11.6718 95.9024 12.2053C95.9024 12.7179 96.0231 13.1337 96.2657 13.4538C96.5218 13.7948 96.867 13.9653 97.2991 13.9653C97.6872 13.9653 97.9975 13.8234 98.2333 13.5385C98.4612 13.2756 98.5729 12.9588 98.5729 12.5892Z" fill="#002478"/>
<path d="M109.91 12.1405C109.91 12.938 109.676 13.5914 109.209 14.104C108.72 14.6309 108.072 14.8938 107.261 14.8938C106.481 14.8938 105.86 14.6419 105.395 14.1359C104.932 13.631 104.701 12.9941 104.701 12.2263C104.701 11.4233 104.939 10.7644 105.417 10.2529C105.896 9.74141 106.539 9.48511 107.35 9.48511C108.13 9.48511 108.758 9.73701 109.232 10.2419C109.683 10.7325 109.91 11.3661 109.91 12.1405ZM108.685 12.1779C108.685 11.6994 108.579 11.2891 108.368 10.947C108.118 10.5334 107.766 10.3266 107.306 10.3266C106.832 10.3266 106.471 10.5334 106.222 10.947C106.01 11.2891 105.905 11.706 105.905 12.1988C105.905 12.6773 106.011 13.0876 106.222 13.4297C106.478 13.8433 106.834 14.0501 107.295 14.0501C107.746 14.0501 108.101 13.84 108.356 13.4187C108.574 13.07 108.685 12.6564 108.685 12.1779Z" fill="#002478"/>
<path d="M116.267 14.7761H115.086V11.8061C115.086 10.8909 114.73 10.4333 114.013 10.4333C113.662 10.4333 113.379 10.5587 113.16 10.8106C112.941 11.0625 112.832 11.3595 112.832 11.6994V14.775H111.648V11.0724C111.648 10.617 111.635 10.1231 111.607 9.58851H112.645L112.7 10.3992H112.733C112.871 10.1473 113.077 9.93941 113.345 9.77331C113.667 9.57971 114.024 9.48181 114.418 9.48181C114.913 9.48181 115.326 9.63801 115.655 9.95151C116.064 10.3354 116.267 10.9085 116.267 11.6697V14.7761Z" fill="#002478"/>
<path d="M124.224 10.4542H122.922V12.9732C122.922 13.6134 123.153 13.9335 123.611 13.9335C123.823 13.9335 123.999 13.9159 124.138 13.8796L124.169 14.7541C123.935 14.8399 123.628 14.8828 123.25 14.8828C122.783 14.8828 122.42 14.7442 122.157 14.467C121.893 14.1898 121.762 13.7234 121.762 13.0689V10.4542H120.985V9.59072H121.762V8.64032L122.921 8.29932V9.58962H124.223V10.4542H124.224Z" fill="#002478"/>
<path d="M130.485 14.776H129.301V11.828C129.301 10.8985 128.945 10.4332 128.23 10.4332C127.682 10.4332 127.308 10.7027 127.102 11.2417C127.067 11.355 127.047 11.4936 127.047 11.6564V14.7749H125.866V7.2113H127.047V10.3364H127.07C127.442 9.7677 127.975 9.4839 128.667 9.4839C129.157 9.4839 129.562 9.6401 129.883 9.9536C130.284 10.3441 130.485 10.9249 130.485 11.6927V14.776Z" fill="#002478"/>
<path d="M136.94 11.938C136.94 12.1448 136.924 12.3186 136.896 12.4605H133.35C133.366 12.9731 133.535 13.3636 133.864 13.6342C134.164 13.8762 134.551 13.9972 135.025 13.9972C135.549 13.9972 136.028 13.9158 136.458 13.7519L136.644 14.5527C136.139 14.7661 135.546 14.8728 134.859 14.8728C134.035 14.8728 133.386 14.6363 132.917 14.1633C132.445 13.6903 132.212 13.0556 132.212 12.2592C132.212 11.4771 132.43 10.8259 132.869 10.3067C133.327 9.7523 133.946 9.4751 134.728 9.4751C135.493 9.4751 136.074 9.7523 136.466 10.3067C136.783 10.7467 136.94 11.2912 136.94 11.938ZM135.812 11.6399C135.821 11.2978 135.743 11.003 135.583 10.7544C135.378 10.4343 135.065 10.2737 134.642 10.2737C134.256 10.2737 133.941 10.4299 133.701 10.7434C133.505 10.9931 133.389 11.2912 133.35 11.6399H135.812Z" fill="#002478"/>
<path d="M60.7188 34.6549H58.1567L56.7532 30.355H51.8748L50.5379 34.6549H48.0435L52.8767 20.0161H55.8619L60.7188 34.6549ZM56.3301 28.551L55.0609 24.7285C54.9266 24.338 54.675 23.4184 54.3039 21.9708H54.2587C54.1109 22.5934 53.8729 23.513 53.5457 24.7285L52.299 28.551H56.3301Z" fill="#002478"/>
<path d="M73.1491 29.2471C73.1491 31.0423 72.6516 32.4613 71.6565 33.503C70.7652 34.4303 69.6585 34.8934 68.3373 34.8934C66.9113 34.8934 65.8869 34.394 65.263 33.3952H65.2178V38.9557H62.8125V27.574C62.8125 26.4454 62.7821 25.2871 62.7234 24.0991H64.8388L64.973 25.7722H65.0182C65.8203 24.5116 67.0376 23.8824 68.6713 23.8824C69.9484 23.8824 71.0146 24.3741 71.8675 25.3586C72.7227 26.3442 73.1491 27.64 73.1491 29.2471ZM70.6987 29.3329C70.6987 28.3055 70.4617 27.4585 69.9856 26.7919C69.4655 26.0967 68.7672 25.7491 67.8917 25.7491C67.2983 25.7491 66.759 25.9427 66.2772 26.3244C65.7944 26.7094 65.4785 27.2121 65.3307 27.8347C65.2562 28.1251 65.219 28.3627 65.219 28.5497V30.3097C65.219 31.0775 65.4604 31.7254 65.9433 32.2545C66.4262 32.7836 67.0534 33.0476 67.8251 33.0476C68.7311 33.0476 69.4362 32.7066 69.9405 32.0268C70.4459 31.3459 70.6987 30.4483 70.6987 29.3329Z" fill="#002478"/>
<path d="M85.6002 29.2471C85.6002 31.0423 85.1026 32.4613 84.1064 33.503C83.2163 34.4303 82.1095 34.8934 80.7884 34.8934C79.3623 34.8934 78.3379 34.394 77.7151 33.3952H77.67V38.9557H75.2647V27.574C75.2647 26.4454 75.2342 25.2871 75.1755 24.0991H77.2909L77.4252 25.7722H77.4703C78.2713 24.5116 79.4887 23.8824 81.1234 23.8824C82.3994 23.8824 83.4656 24.3741 84.3208 25.3586C85.1726 26.3442 85.6002 27.64 85.6002 29.2471ZM83.1497 29.3329C83.1497 28.3055 82.9116 27.4585 82.4355 26.7919C81.9154 26.0967 81.2193 25.7491 80.3427 25.7491C79.7482 25.7491 79.21 25.9427 78.7271 26.3244C78.2443 26.7094 77.9295 27.2121 77.7817 27.8347C77.7084 28.1251 77.67 28.3627 77.67 28.5497V30.3097C77.67 31.0775 77.9114 31.7254 78.392 32.2545C78.8749 32.7825 79.5022 33.0476 80.2762 33.0476C81.1821 33.0476 81.8872 32.7066 82.3915 32.0268C82.897 31.3459 83.1497 30.4483 83.1497 29.3329Z" fill="#002478"/>
<path d="M99.5225 30.5496C99.5225 31.7948 99.0791 32.8079 98.1889 33.59C97.2108 34.4447 95.849 34.8715 94.0992 34.8715C92.4836 34.8715 91.1884 34.5679 90.208 33.9596L90.7653 32.0049C91.8213 32.6275 92.98 32.9399 94.2425 32.9399C95.1484 32.9399 95.8535 32.7397 96.3601 32.3415C96.8644 31.9433 97.116 31.4087 97.116 30.7421C97.116 30.1481 96.9084 29.6476 96.4921 29.2417C96.0781 28.8358 95.3865 28.4585 94.4207 28.1098C91.792 27.1539 90.4788 25.7536 90.4788 23.9122C90.4788 22.7088 90.9391 21.7221 91.8608 20.9543C92.7792 20.1854 94.0044 19.8015 95.5365 19.8015C96.9028 19.8015 98.0378 20.0336 98.9437 20.4967L98.3424 22.4085C97.4962 21.9597 96.5395 21.7353 95.4688 21.7353C94.6227 21.7353 93.9616 21.9388 93.4877 22.3436C93.0872 22.7055 92.8864 23.1466 92.8864 23.6691C92.8864 24.2477 93.1154 24.7262 93.5757 25.1024C93.9762 25.45 94.7039 25.8262 95.7599 26.2321C97.0517 26.7392 98.0005 27.3321 98.6109 28.0119C99.219 28.6895 99.5225 29.5376 99.5225 30.5496Z" fill="#002478"/>
<path d="M107.475 25.8591H104.824V30.984C104.824 32.2875 105.291 32.9387 106.227 32.9387C106.657 32.9387 107.014 32.9024 107.296 32.8298L107.362 34.6107C106.888 34.7834 106.265 34.8703 105.492 34.8703C104.542 34.8703 103.799 34.5876 103.263 34.0233C102.73 33.4579 102.461 32.5097 102.461 31.1776V25.8569H100.882V24.0969H102.461V22.1642L104.824 21.469V24.0969H107.475V25.8591Z" fill="#002478"/>
<path d="M119.438 29.29C119.438 30.9125 118.962 32.2446 118.012 33.2863C117.016 34.3588 115.694 34.8934 114.045 34.8934C112.457 34.8934 111.192 34.3797 110.249 33.3523C109.306 32.3249 108.834 31.028 108.834 29.4649C108.834 27.8292 109.319 26.4894 110.293 25.4477C111.264 24.4049 112.575 23.8835 114.224 23.8835C115.812 23.8835 117.09 24.3972 118.055 25.4257C118.978 26.4234 119.438 27.7115 119.438 29.29ZM116.943 29.3659C116.943 28.3924 116.729 27.5575 116.297 26.8612C115.793 26.0186 115.072 25.5984 114.138 25.5984C113.171 25.5984 112.437 26.0197 111.932 26.8612C111.5 27.5586 111.287 28.4067 111.287 29.4099C111.287 30.3834 111.5 31.2183 111.932 31.9135C112.452 32.7561 113.179 33.1763 114.116 33.1763C115.035 33.1763 115.756 32.7473 116.276 31.8915C116.719 31.182 116.943 30.3383 116.943 29.3659Z" fill="#002478"/>
<path d="M127.255 26.1616C127.017 26.1187 126.763 26.0967 126.497 26.0967C125.651 26.0967 124.996 26.408 124.536 27.0317C124.135 27.5817 123.935 28.2769 123.935 29.1162V34.6547H121.53L121.553 27.4233C121.553 26.2067 121.522 25.099 121.463 24.1002H123.558L123.646 26.1198H123.712C123.966 25.4257 124.367 24.8669 124.915 24.4478C125.451 24.0705 126.03 23.8824 126.654 23.8824C126.876 23.8824 127.077 23.8978 127.255 23.9253V26.1616Z" fill="#002478"/>
<path d="M138.014 28.8776C138.014 29.2978 137.986 29.652 137.926 29.9413H130.71C130.738 30.9841 131.087 31.7816 131.757 32.3316C132.365 32.8233 133.152 33.0697 134.117 33.0697C135.186 33.0697 136.161 32.9036 137.037 32.5703L137.414 34.1983C136.39 34.6339 135.18 34.8506 133.785 34.8506C132.106 34.8506 130.788 34.3688 129.829 33.4063C128.872 32.4438 128.393 31.1513 128.393 29.5299C128.393 27.9382 128.838 26.6127 129.731 25.5556C130.665 24.427 131.927 23.8627 133.516 23.8627C135.076 23.8627 136.258 24.427 137.06 25.5556C137.695 26.4521 138.014 27.5609 138.014 28.8776ZM135.721 28.2693C135.736 27.5741 135.579 26.9735 135.253 26.4664C134.837 25.8141 134.197 25.4885 133.337 25.4885C132.55 25.4885 131.911 25.8064 131.422 26.4444C131.022 26.9515 130.783 27.5598 130.71 28.2682H135.721V28.2693Z" fill="#002478"/>
</svg>
