<svg width="199" height="33" viewBox="0 0 199 33" fill="none" xmlns="http://www.w3.org/2000/svg">
<path d="M14.3887 5.80798C14.8915 5.80798 15.3556 5.84666 15.8197 5.92402C17.7921 6.25279 19.5325 7.25842 20.8281 8.67019C21.5629 9.50177 22.143 10.4881 22.5298 11.5711C22.7038 12.0352 22.8198 12.5187 22.8972 13.0022H5.86084C5.95753 12.4994 6.07355 12.0352 6.22825 11.5711C6.59566 10.4881 7.19513 9.50177 7.92995 8.67019C9.22557 7.25842 10.9659 6.25279 12.9384 5.92402C13.4411 5.866 13.9052 5.80798 14.3887 5.80798Z" fill="#002478"/>
<path d="M12.9555 20.022C13.4196 20.138 13.903 20.2154 14.3864 20.2154C14.8892 20.2154 15.3533 20.138 15.8174 20.022C17.3257 19.6545 18.602 18.6489 19.3368 17.3338C19.6269 16.889 19.8009 16.3862 19.9556 15.8834H22.8949C22.7982 16.3862 22.6822 16.8697 22.5275 17.3338C22.1601 18.3975 21.5606 19.3838 20.8258 20.196C19.5302 21.6078 17.7898 22.6134 15.8174 22.9422C15.3533 23.0195 14.8699 23.0582 14.3864 23.0582C13.8837 23.0582 13.4196 23.0195 12.9555 22.9422C10.983 22.6134 9.24266 21.6078 7.94704 20.196C7.21222 19.3644 6.63209 18.3781 6.24534 17.3338C6.07131 16.8697 5.95528 16.3669 5.87793 15.8834H8.81723C8.95259 16.4055 9.14597 16.889 9.43603 17.3338C10.1902 18.6489 11.4471 19.6352 12.9555 20.022Z" fill="#0084C9"/>
<path d="M2.97798 12.9976C2.88129 13.4617 2.86195 13.9452 2.86195 14.4287C2.86195 14.9315 2.88129 15.3956 2.97798 15.8598C2.99731 16.3432 3.094 16.8461 3.22936 17.3102C3.48075 18.3158 3.88684 19.2828 4.40895 20.1724C5.02775 21.2554 5.82059 22.2417 6.76813 23.0346C8.33447 24.427 10.2682 25.394 12.3953 25.7421C12.5887 25.7808 12.7628 25.8001 12.9561 25.8195V32.8589C12.5307 32.6849 12.1633 32.4528 11.8346 32.1434L11.5638 31.8726L4.83438 25.1813L4.81504 25.1619L3.73214 24.0789L3.7128 24.0596C3.44208 23.7502 3.17135 23.4214 2.91996 23.0733C2.20448 22.203 1.64369 21.2361 1.19893 20.2111C0.792837 19.3215 0.483437 18.3545 0.3094 17.3489C0.193375 16.8847 0.116025 16.3819 0.0773503 15.8984C0.0193378 15.4343 0 14.9315 0 14.4673C0 14.0032 0.0193378 13.5004 0.0773503 13.0362C0.116025 12.5527 0.193375 12.0693 0.3094 11.6051C0.502775 10.5995 0.792837 9.63253 1.19893 8.70424C1.64369 7.67926 2.20448 6.71231 2.91996 5.84204C3.69346 4.7397 4.67968 3.7534 5.78192 2.97983C7.83169 1.43269 10.3069 0.407713 12.9561 0.156303V3.09587C10.597 3.34728 8.48917 4.37226 6.78747 5.84204C5.83993 6.63495 5.04709 7.60191 4.42829 8.70424C3.88684 9.59385 3.48075 10.5608 3.22936 11.6051C3.11334 12.0306 3.01665 12.5141 2.97798 12.9976Z" fill="#002478"/>
<path d="M28.7945 14.452C28.7945 14.9162 28.7752 15.419 28.7172 15.8831C28.6785 16.3666 28.6011 16.8694 28.4851 17.3336C28.2917 18.3392 27.9823 19.3062 27.5956 20.1958C27.1508 21.2208 26.59 22.1877 25.8745 23.058C25.5265 23.5415 25.1204 24.025 24.695 24.4504L24.3662 24.7792L24.3275 24.8179L17.1727 31.9734C16.7859 32.3408 16.3412 32.6502 15.8384 32.8436V25.8235C16.0318 25.8042 16.2445 25.7655 16.4378 25.7461C18.5456 25.398 20.46 24.4311 22.007 23.058C22.9546 22.2651 23.7474 21.2788 24.3662 20.1958C24.8883 19.3062 25.2751 18.3392 25.5458 17.3336C25.6812 16.8694 25.7779 16.3666 25.7972 15.8831C25.8939 15.419 25.9132 14.9355 25.9132 14.452C25.9132 13.9492 25.8939 13.4851 25.7972 13.0209C25.7779 12.5374 25.6812 12.054 25.5458 11.5898C25.2944 10.5455 24.8883 9.59789 24.3662 8.68894C23.7281 7.58661 22.9352 6.61965 21.9877 5.82674C20.286 4.33762 18.1782 3.33198 15.8384 3.08057V0.141006C18.4876 0.392416 20.9628 1.41739 23.0126 2.96453C24.1148 3.7381 25.101 4.7244 25.8745 5.82674C26.5707 6.697 27.1508 7.66396 27.5956 8.68894C28.0017 9.59789 28.3111 10.5648 28.4851 11.5898C28.6011 12.054 28.6785 12.5374 28.7172 13.0209C28.7752 13.4851 28.7945 13.9686 28.7945 14.452Z" fill="#002478"/>
<path d="M60.8144 21.963C60.8144 26.0076 57.4089 29.2952 53.2229 29.2952H40.9487V3.84549H52.608C56.6284 3.84549 59.9394 7.13314 59.9394 11.1777C59.9394 13.1171 59.1826 14.891 57.9291 16.2156C59.6792 17.5637 60.8144 19.6451 60.8144 21.963ZM45.8678 14.0869H52.3242C53.7668 14.0869 54.9729 12.9043 54.9729 11.4378C54.9729 9.99505 53.7905 8.78879 52.3242 8.78879H45.8678V14.0869ZM55.848 21.7029C55.848 20.2601 54.6655 19.0538 53.1992 19.0538H45.8678V24.3519H53.1992C54.6655 24.3282 55.848 23.1456 55.848 21.7029Z" fill="#002478"/>
<path d="M66.4658 29.2727V3.3736H71.4086V29.2727H66.4658Z" fill="#002478"/>
<path d="M82.429 13.2116V20.3782C82.429 22.7434 84.3447 24.6592 86.7096 24.6592C89.0746 24.6592 90.9902 22.7434 90.9902 20.3782V9.4982H95.933V20.3782C95.933 24.6356 93.0477 28.2071 89.1219 29.2951C88.3414 29.5079 87.5373 29.6262 86.686 29.6262C85.8346 29.6262 85.0305 29.5079 84.25 29.2951C80.3242 28.2307 77.439 24.6356 77.439 20.3782V9.4982H82.3817L82.429 13.2116Z" fill="#002478"/>
<path d="M121.452 19.3843C121.452 19.9756 121.405 20.5669 121.31 21.1345H106.293C107.026 23.1686 108.965 24.6351 111.259 24.6351C112.986 24.6351 114.523 23.8072 115.469 22.5064H120.956C119.631 26.5982 115.776 29.5784 111.236 29.5784C105.583 29.5784 101.019 25.0135 101.019 19.3606C101.019 13.7078 105.583 9.14289 111.236 9.14289C116.888 9.16654 121.452 13.7551 121.452 19.3843ZM115.847 16.8298C114.949 15.2215 113.222 14.1335 111.259 14.1335C109.273 14.1335 107.57 15.2215 106.671 16.8298H115.847Z" fill="#002478"/>
<path d="M136.256 24.6596C137.793 24.6596 139.165 23.9973 140.135 22.9566L143.777 26.3152C141.908 28.3493 139.236 29.6265 136.256 29.6265C130.628 29.6265 126.04 25.0617 126.04 19.4088C126.04 13.7559 130.604 9.19106 136.256 9.19106C139.236 9.19106 141.908 10.4683 143.777 12.5024L140.111 15.8373C139.141 14.7966 137.77 14.1344 136.233 14.1344C133.324 14.1344 130.982 16.4759 130.982 19.3851C130.982 22.2943 133.347 24.6596 136.256 24.6596Z" fill="#0084C9"/>
<path d="M167.902 19.385C167.902 25.0142 163.337 29.6027 157.685 29.6027C152.033 29.6027 147.468 25.0379 147.468 19.385C147.468 13.7321 152.033 9.16728 157.685 9.16728C163.337 9.16728 167.902 13.7558 167.902 19.385ZM157.685 14.1342C154.776 14.1342 152.435 16.4758 152.435 19.385C152.435 22.2942 154.776 24.6358 157.685 24.6358C160.594 24.6358 162.935 22.2942 162.935 19.385C162.935 16.4758 160.594 14.1342 157.685 14.1342Z" fill="#0084C9"/>
<path d="M173.409 29.2725V3.37339H178.352V29.2725H173.409Z" fill="#0084C9"/>
<path d="M193.344 9.26242C193.746 9.21512 194.172 9.19147 194.598 9.19147C195.993 9.19147 197.318 9.47529 198.5 9.99564L197.53 15.1518C194.48 12.7866 189.773 14.2294 189.773 18.9598V29.2958H184.831V9.49894H189.773V11.3202L193.344 9.26242Z" fill="#0084C9"/>
</svg>
