<svg width="590" height="317" viewBox="0 0 590 317" fill="none" xmlns="http://www.w3.org/2000/svg">
<g opacity="0.8">
<g filter="url(#filter0_d_1295_187313)">
<rect x="33" y="16" width="156" height="120" rx="5" fill="white"/>
<g opacity="0.9">
<rect x="91" y="32" width="40" height="40" rx="5" fill="#F9B70E" fill-opacity="0.1"/>
<g opacity="0.7">
<path fill-rule="evenodd" clip-rule="evenodd" d="M119.94 44.1676C120.054 44.136 120.161 44.0824 120.254 44.0097C120.347 43.937 120.425 43.8466 120.483 43.7437C120.542 43.6409 120.579 43.5276 120.594 43.4102C120.608 43.2929 120.599 43.1739 120.568 43.06C120.536 42.946 120.483 42.8394 120.41 42.7462C120.337 42.653 120.247 42.575 120.144 42.5168C120.041 42.4585 119.928 42.421 119.811 42.4066C119.693 42.3921 119.574 42.4008 119.46 42.4324L105.376 46.318C104.368 46.4332 103.371 46.5784 102.382 46.7524C101.767 46.8636 101.211 47.1882 100.812 47.6689C100.413 48.1496 100.196 48.7556 100.2 49.3804V58.9C100.2 59.616 100.485 60.3028 100.991 60.8092C101.497 61.3155 102.184 61.6 102.9 61.6H119.1C119.455 61.6 119.806 61.5301 120.133 61.3944C120.461 61.2588 120.759 61.0599 121.009 60.8092C121.26 60.5584 121.459 60.2608 121.595 59.9332C121.73 59.6056 121.8 59.2545 121.8 58.9V49.3792C121.8 48.1072 120.906 46.9792 119.62 46.7524C117.475 46.3739 115.308 46.1378 113.133 46.0456L119.94 44.1676ZM118.2 51.4C118.2 51.8774 118.011 52.3352 117.673 52.6728C117.335 53.0103 116.878 53.2 116.4 53.2C115.923 53.2 115.465 53.0103 115.127 52.6728C114.79 52.3352 114.6 51.8774 114.6 51.4C114.6 50.9226 114.79 50.4647 115.127 50.1272C115.465 49.7896 115.923 49.6 116.4 49.6C116.878 49.6 117.335 49.7896 117.673 50.1272C118.011 50.4647 118.2 50.9226 118.2 51.4ZM116.4 59.2C116.878 59.2 117.335 59.0103 117.673 58.6728C118.011 58.3352 118.2 57.8774 118.2 57.4C118.2 56.9226 118.011 56.4647 117.673 56.1272C117.335 55.7896 116.878 55.6 116.4 55.6C115.923 55.6 115.465 55.7896 115.127 56.1272C114.79 56.4647 114.6 56.9226 114.6 57.4C114.6 57.8774 114.79 58.3352 115.127 58.6728C115.465 59.0103 115.923 59.2 116.4 59.2ZM105.288 53.2C105.288 52.9613 105.383 52.7324 105.552 52.5636C105.721 52.3948 105.95 52.3 106.188 52.3H106.2C106.439 52.3 106.668 52.3948 106.837 52.5636C107.005 52.7324 107.1 52.9613 107.1 53.2V53.212C107.1 53.4507 107.005 53.6796 106.837 53.8484C106.668 54.0171 106.439 54.112 106.2 54.112H106.188C105.95 54.112 105.721 54.0171 105.552 53.8484C105.383 53.6796 105.288 53.4507 105.288 53.212V53.2ZM108.588 52.3C108.35 52.3 108.121 52.3948 107.952 52.5636C107.783 52.7324 107.688 52.9613 107.688 53.2V53.212C107.688 53.71 108.091 54.112 108.588 54.112H108.6C108.839 54.112 109.068 54.0171 109.237 53.8484C109.405 53.6796 109.5 53.4507 109.5 53.212V53.2C109.5 52.9613 109.405 52.7324 109.237 52.5636C109.068 52.3948 108.839 52.3 108.6 52.3H108.588ZM106.488 50.5C106.488 50.2613 106.583 50.0324 106.752 49.8636C106.921 49.6948 107.15 49.6 107.388 49.6H107.4C107.639 49.6 107.868 49.6948 108.037 49.8636C108.205 50.0324 108.3 50.2613 108.3 50.5V50.512C108.3 50.7507 108.205 50.9796 108.037 51.1484C107.868 51.3171 107.639 51.412 107.4 51.412H107.388C107.15 51.412 106.921 51.3171 106.752 51.1484C106.583 50.9796 106.488 50.7507 106.488 50.512V50.5ZM110.788 51.004C110.619 50.8354 110.39 50.7408 110.152 50.7408C109.913 50.7408 109.685 50.8354 109.516 51.004L109.507 51.0124C109.339 51.1811 109.244 51.4099 109.244 51.6484C109.244 51.8869 109.339 52.1156 109.507 52.2844L109.516 52.294C109.685 52.4625 109.913 52.5572 110.152 52.5572C110.39 52.5572 110.619 52.4625 110.788 52.294L110.796 52.2856C110.88 52.202 110.946 52.1027 110.991 51.9935C111.037 51.8843 111.06 51.7672 111.06 51.649C111.06 51.5307 111.037 51.4136 110.991 51.3044C110.946 51.1952 110.88 51.0959 110.796 51.0124L110.788 51.004ZM111.3 53.5C111.539 53.5 111.768 53.5948 111.937 53.7636C112.105 53.9324 112.2 54.1613 112.2 54.4V54.412C112.2 54.6507 112.105 54.8796 111.937 55.0484C111.768 55.2171 111.539 55.312 111.3 55.312H111.288C111.05 55.312 110.821 55.2171 110.652 55.0484C110.483 54.8796 110.388 54.6507 110.388 54.412V54.4C110.388 54.1613 110.483 53.9324 110.652 53.7636C110.821 53.5948 111.05 53.5 111.288 53.5H111.3ZM110.796 57.8008C110.88 57.7172 110.946 57.6179 110.991 57.5087C111.037 57.3995 111.06 57.2824 111.06 57.1642C111.06 57.0459 111.037 56.9288 110.991 56.8196C110.946 56.7104 110.88 56.6111 110.796 56.5276L110.788 56.5192C110.619 56.3506 110.39 56.256 110.152 56.256C109.913 56.256 109.685 56.3506 109.516 56.5192L109.507 56.5276C109.339 56.6963 109.244 56.9251 109.244 57.1636C109.244 57.4021 109.339 57.6308 109.507 57.7996L109.516 57.8092C109.685 57.9777 109.913 58.0724 110.152 58.0724C110.39 58.0724 110.619 57.9777 110.788 57.8092L110.797 57.8008H110.796ZM106.488 58.3C106.488 58.0613 106.583 57.8324 106.752 57.6636C106.921 57.4948 107.15 57.4 107.388 57.4H107.4C107.639 57.4 107.868 57.4948 108.037 57.6636C108.205 57.8324 108.3 58.0613 108.3 58.3V58.312C108.3 58.5507 108.205 58.7796 108.037 58.9484C107.868 59.1171 107.639 59.212 107.4 59.212H107.388C107.15 59.212 106.921 59.1171 106.752 58.9484C106.583 58.7796 106.488 58.5507 106.488 58.312V58.3ZM105.273 56.5192C105.104 56.3506 104.875 56.256 104.637 56.256C104.398 56.256 104.169 56.3506 104.001 56.5192L103.991 56.5276C103.823 56.6963 103.728 56.9251 103.728 57.1636C103.728 57.4021 103.823 57.6308 103.991 57.7996L103.999 57.8092C104.083 57.8928 104.182 57.9591 104.291 58.0044C104.401 58.0497 104.518 58.073 104.636 58.073C104.754 58.073 104.871 58.0497 104.981 58.0044C105.09 57.9591 105.189 57.8928 105.273 57.8092L105.281 57.8008C105.365 57.7172 105.431 57.6179 105.476 57.5087C105.522 57.3995 105.545 57.2824 105.545 57.1642C105.545 57.0459 105.522 56.9288 105.476 56.8196C105.431 56.7104 105.365 56.6111 105.281 56.5276L105.273 56.5192ZM103.5 53.5C103.739 53.5 103.968 53.5948 104.137 53.7636C104.305 53.9324 104.4 54.1613 104.4 54.4V54.412C104.4 54.6507 104.305 54.8796 104.137 55.0484C103.968 55.2171 103.739 55.312 103.5 55.312H103.488C103.25 55.312 103.021 55.2171 102.852 55.0484C102.683 54.8796 102.588 54.6507 102.588 54.412V54.4C102.588 54.1613 102.683 53.9324 102.852 53.7636C103.021 53.5948 103.25 53.5 103.488 53.5H103.5ZM105.281 52.2856C105.365 52.202 105.431 52.1027 105.476 51.9935C105.522 51.8843 105.545 51.7672 105.545 51.649C105.545 51.5307 105.522 51.4136 105.476 51.3044C105.431 51.1952 105.365 51.0959 105.281 51.0124L105.273 51.004C105.104 50.8354 104.875 50.7408 104.637 50.7408C104.398 50.7408 104.169 50.8354 104.001 51.004L103.992 51.0124C103.824 51.1811 103.729 51.4099 103.729 51.6484C103.729 51.8869 103.824 52.1156 103.992 52.2844L104.001 52.294C104.169 52.4625 104.398 52.5572 104.637 52.5572C104.875 52.5572 105.104 52.4625 105.273 52.294L105.281 52.2856ZM107.688 55.6C107.688 55.3613 107.783 55.1324 107.952 54.9636C108.121 54.7948 108.35 54.7 108.588 54.7H108.6C108.839 54.7 109.068 54.7948 109.237 54.9636C109.405 55.1324 109.5 55.3613 109.5 55.6V55.612C109.5 55.8507 109.405 56.0796 109.237 56.2484C109.068 56.4171 108.839 56.512 108.6 56.512H108.588C108.35 56.512 108.121 56.4171 107.952 56.2484C107.783 56.0796 107.688 55.8507 107.688 55.612V55.6ZM106.188 54.7C105.95 54.7 105.721 54.7948 105.552 54.9636C105.383 55.1324 105.288 55.3613 105.288 55.6V55.612C105.288 56.11 105.691 56.512 106.188 56.512H106.2C106.439 56.512 106.668 56.4171 106.837 56.2484C107.005 56.0796 107.1 55.8507 107.1 55.612V55.6C107.1 55.3613 107.005 55.1324 106.837 54.9636C106.668 54.7948 106.439 54.7 106.2 54.7H106.188Z" fill="#F9B70E"/>
</g>
</g>
<line opacity="0.3" x1="42" y1="87.75" x2="180" y2="87.75" stroke="#383838" stroke-width="0.5"/>
<path d="M82.0771 107.047V117H80.375V107.047H82.0771ZM85.2012 107.047V108.414H77.2783V107.047H85.2012ZM88.9541 117.137C88.4072 117.137 87.9128 117.048 87.4707 116.87C87.0332 116.688 86.6595 116.435 86.3496 116.111C86.0443 115.788 85.8096 115.407 85.6455 114.97C85.4814 114.532 85.3994 114.061 85.3994 113.555V113.281C85.3994 112.702 85.4837 112.178 85.6523 111.709C85.821 111.24 86.0557 110.839 86.3564 110.506C86.6572 110.169 87.0127 109.911 87.4229 109.733C87.833 109.556 88.2773 109.467 88.7559 109.467C89.2845 109.467 89.7471 109.556 90.1436 109.733C90.54 109.911 90.8682 110.162 91.1279 110.485C91.3923 110.804 91.5882 111.185 91.7158 111.627C91.848 112.069 91.9141 112.557 91.9141 113.09V113.794H86.1992V112.611H90.2871V112.481C90.278 112.185 90.2188 111.907 90.1094 111.647C90.0046 111.388 89.8428 111.178 89.624 111.019C89.4053 110.859 89.1136 110.779 88.749 110.779C88.4756 110.779 88.2318 110.839 88.0176 110.957C87.8079 111.071 87.6325 111.237 87.4912 111.456C87.3499 111.675 87.2406 111.939 87.1631 112.249C87.0902 112.554 87.0537 112.898 87.0537 113.281V113.555C87.0537 113.878 87.097 114.179 87.1836 114.457C87.2747 114.73 87.4069 114.97 87.5801 115.175C87.7533 115.38 87.9629 115.542 88.209 115.66C88.4551 115.774 88.7354 115.831 89.0498 115.831C89.4463 115.831 89.7995 115.751 90.1094 115.592C90.4193 115.432 90.6882 115.207 90.916 114.915L91.7842 115.756C91.6247 115.988 91.4173 116.212 91.1621 116.426C90.9069 116.635 90.5947 116.806 90.2256 116.938C89.861 117.071 89.4372 117.137 88.9541 117.137ZM96.2207 115.824C96.4896 115.824 96.7311 115.772 96.9453 115.667C97.1641 115.558 97.3395 115.407 97.4717 115.216C97.6084 115.024 97.6836 114.803 97.6973 114.553H99.249C99.2399 115.031 99.0986 115.466 98.8252 115.858C98.5518 116.25 98.1895 116.562 97.7383 116.795C97.2871 117.023 96.7881 117.137 96.2412 117.137C95.6761 117.137 95.1839 117.041 94.7646 116.85C94.3454 116.654 93.9967 116.385 93.7188 116.043C93.4408 115.701 93.2311 115.307 93.0898 114.86C92.9531 114.414 92.8848 113.935 92.8848 113.425V113.186C92.8848 112.675 92.9531 112.197 93.0898 111.75C93.2311 111.299 93.4408 110.902 93.7188 110.561C93.9967 110.219 94.3454 109.952 94.7646 109.761C95.1839 109.565 95.6738 109.467 96.2344 109.467C96.8268 109.467 97.3464 109.585 97.793 109.822C98.2396 110.055 98.5905 110.381 98.8457 110.8C99.1055 111.215 99.2399 111.698 99.249 112.249H97.6973C97.6836 111.976 97.6152 111.729 97.4922 111.511C97.3737 111.287 97.2051 111.11 96.9863 110.978C96.7721 110.845 96.5146 110.779 96.2139 110.779C95.8812 110.779 95.6055 110.848 95.3867 110.984C95.168 111.117 94.9971 111.299 94.874 111.531C94.751 111.759 94.6621 112.017 94.6074 112.304C94.5573 112.586 94.5322 112.88 94.5322 113.186V113.425C94.5322 113.73 94.5573 114.026 94.6074 114.313C94.6576 114.601 94.7441 114.858 94.8672 115.086C94.9948 115.309 95.168 115.489 95.3867 115.626C95.6055 115.758 95.8835 115.824 96.2207 115.824ZM102.141 106.5V117H100.5V106.5H102.141ZM101.854 113.028L101.32 113.021C101.325 112.511 101.396 112.039 101.532 111.606C101.674 111.174 101.869 110.798 102.12 110.479C102.375 110.155 102.681 109.907 103.036 109.733C103.392 109.556 103.786 109.467 104.219 109.467C104.583 109.467 104.911 109.517 105.203 109.617C105.499 109.717 105.755 109.879 105.969 110.103C106.183 110.321 106.345 110.608 106.454 110.964C106.568 111.315 106.625 111.743 106.625 112.249V117H104.971V112.235C104.971 111.88 104.918 111.597 104.813 111.388C104.713 111.178 104.565 111.028 104.369 110.937C104.173 110.841 103.934 110.793 103.651 110.793C103.355 110.793 103.093 110.852 102.865 110.971C102.642 111.089 102.455 111.251 102.305 111.456C102.154 111.661 102.04 111.898 101.963 112.167C101.89 112.436 101.854 112.723 101.854 113.028ZM109.927 111.183V117H108.279V109.604H109.831L109.927 111.183ZM109.633 113.028L109.1 113.021C109.104 112.497 109.177 112.017 109.318 111.579C109.464 111.142 109.665 110.766 109.92 110.451C110.18 110.137 110.49 109.895 110.85 109.727C111.21 109.553 111.611 109.467 112.053 109.467C112.408 109.467 112.729 109.517 113.017 109.617C113.308 109.713 113.557 109.87 113.762 110.089C113.971 110.308 114.131 110.592 114.24 110.943C114.35 111.29 114.404 111.716 114.404 112.222V117H112.75V112.215C112.75 111.859 112.698 111.579 112.593 111.374C112.493 111.164 112.344 111.016 112.148 110.93C111.957 110.839 111.718 110.793 111.431 110.793C111.148 110.793 110.895 110.852 110.672 110.971C110.449 111.089 110.259 111.251 110.104 111.456C109.954 111.661 109.838 111.898 109.756 112.167C109.674 112.436 109.633 112.723 109.633 113.028ZM117.85 109.604V117H116.195V109.604H117.85ZM116.086 107.662C116.086 107.411 116.168 107.204 116.332 107.04C116.501 106.871 116.733 106.787 117.029 106.787C117.321 106.787 117.551 106.871 117.72 107.04C117.888 107.204 117.973 107.411 117.973 107.662C117.973 107.908 117.888 108.113 117.72 108.277C117.551 108.441 117.321 108.523 117.029 108.523C116.733 108.523 116.501 108.441 116.332 108.277C116.168 108.113 116.086 107.908 116.086 107.662ZM122.676 115.824C122.945 115.824 123.186 115.772 123.4 115.667C123.619 115.558 123.795 115.407 123.927 115.216C124.063 115.024 124.139 114.803 124.152 114.553H125.704C125.695 115.031 125.554 115.466 125.28 115.858C125.007 116.25 124.645 116.562 124.193 116.795C123.742 117.023 123.243 117.137 122.696 117.137C122.131 117.137 121.639 117.041 121.22 116.85C120.8 116.654 120.452 116.385 120.174 116.043C119.896 115.701 119.686 115.307 119.545 114.86C119.408 114.414 119.34 113.935 119.34 113.425V113.186C119.34 112.675 119.408 112.197 119.545 111.75C119.686 111.299 119.896 110.902 120.174 110.561C120.452 110.219 120.8 109.952 121.22 109.761C121.639 109.565 122.129 109.467 122.689 109.467C123.282 109.467 123.801 109.585 124.248 109.822C124.695 110.055 125.046 110.381 125.301 110.8C125.561 111.215 125.695 111.698 125.704 112.249H124.152C124.139 111.976 124.07 111.729 123.947 111.511C123.829 111.287 123.66 111.11 123.441 110.978C123.227 110.845 122.97 110.779 122.669 110.779C122.336 110.779 122.061 110.848 121.842 110.984C121.623 111.117 121.452 111.299 121.329 111.531C121.206 111.759 121.117 112.017 121.062 112.304C121.012 112.586 120.987 112.88 120.987 113.186V113.425C120.987 113.73 121.012 114.026 121.062 114.313C121.113 114.601 121.199 114.858 121.322 115.086C121.45 115.309 121.623 115.489 121.842 115.626C122.061 115.758 122.339 115.824 122.676 115.824ZM128.732 109.604V117H127.078V109.604H128.732ZM126.969 107.662C126.969 107.411 127.051 107.204 127.215 107.04C127.383 106.871 127.616 106.787 127.912 106.787C128.204 106.787 128.434 106.871 128.603 107.04C128.771 107.204 128.855 107.411 128.855 107.662C128.855 107.908 128.771 108.113 128.603 108.277C128.434 108.441 128.204 108.523 127.912 108.523C127.616 108.523 127.383 108.441 127.215 108.277C127.051 108.113 126.969 107.908 126.969 107.662ZM134.707 115.517V111.989C134.707 111.725 134.659 111.497 134.563 111.306C134.468 111.114 134.322 110.966 134.126 110.861C133.935 110.757 133.693 110.704 133.401 110.704C133.132 110.704 132.9 110.75 132.704 110.841C132.508 110.932 132.355 111.055 132.246 111.21C132.137 111.365 132.082 111.54 132.082 111.736H130.441C130.441 111.445 130.512 111.162 130.653 110.889C130.795 110.615 131 110.371 131.269 110.157C131.537 109.943 131.859 109.774 132.232 109.651C132.606 109.528 133.025 109.467 133.49 109.467C134.046 109.467 134.538 109.56 134.967 109.747C135.4 109.934 135.739 110.216 135.985 110.595C136.236 110.968 136.361 111.438 136.361 112.003V115.291C136.361 115.628 136.384 115.931 136.43 116.2C136.48 116.465 136.55 116.695 136.642 116.891V117H134.953C134.876 116.822 134.814 116.597 134.769 116.323C134.728 116.045 134.707 115.776 134.707 115.517ZM134.946 112.502L134.96 113.521H133.777C133.472 113.521 133.203 113.55 132.971 113.609C132.738 113.664 132.545 113.746 132.39 113.855C132.235 113.965 132.118 114.097 132.041 114.252C131.964 114.407 131.925 114.582 131.925 114.778C131.925 114.974 131.97 115.154 132.062 115.318C132.153 115.478 132.285 115.603 132.458 115.694C132.636 115.785 132.85 115.831 133.101 115.831C133.438 115.831 133.732 115.763 133.982 115.626C134.238 115.485 134.438 115.314 134.584 115.113C134.73 114.908 134.807 114.715 134.816 114.532L135.35 115.264C135.295 115.451 135.201 115.651 135.069 115.865C134.937 116.079 134.764 116.285 134.55 116.48C134.34 116.672 134.087 116.829 133.791 116.952C133.499 117.075 133.162 117.137 132.779 117.137C132.296 117.137 131.866 117.041 131.487 116.85C131.109 116.654 130.813 116.392 130.599 116.063C130.384 115.731 130.277 115.355 130.277 114.936C130.277 114.544 130.35 114.197 130.496 113.896C130.646 113.591 130.865 113.336 131.152 113.131C131.444 112.926 131.799 112.771 132.219 112.666C132.638 112.557 133.117 112.502 133.654 112.502H134.946ZM139.718 111.183V117H138.07V109.604H139.622L139.718 111.183ZM139.424 113.028L138.891 113.021C138.895 112.497 138.968 112.017 139.109 111.579C139.255 111.142 139.456 110.766 139.711 110.451C139.971 110.137 140.281 109.895 140.641 109.727C141.001 109.553 141.402 109.467 141.844 109.467C142.199 109.467 142.521 109.517 142.808 109.617C143.099 109.713 143.348 109.87 143.553 110.089C143.762 110.308 143.922 110.592 144.031 110.943C144.141 111.29 144.195 111.716 144.195 112.222V117H142.541V112.215C142.541 111.859 142.489 111.579 142.384 111.374C142.284 111.164 142.135 111.016 141.939 110.93C141.748 110.839 141.509 110.793 141.222 110.793C140.939 110.793 140.686 110.852 140.463 110.971C140.24 111.089 140.05 111.251 139.896 111.456C139.745 111.661 139.629 111.898 139.547 112.167C139.465 112.436 139.424 112.723 139.424 113.028Z" fill="#1E1E1E"/>
</g>
<g filter="url(#filter1_d_1295_187313)">
<rect x="205" y="16" width="156" height="120" rx="5" fill="white"/>
<g opacity="0.9">
<rect x="263" y="32" width="40" height="40" rx="5" fill="#0084C9" fill-opacity="0.1"/>
<path d="M290.263 48.668L286.987 45.3925L286.74 45.145L286.492 45.3925L284.62 47.265L282.995 45.64L285.577 43.0575C286.221 42.4141 287.269 42.4141 287.912 43.0575L290.032 45.1769C290.032 45.177 290.032 45.1771 290.032 45.1772C290.529 45.6761 290.807 46.3512 290.807 47.055C290.807 47.6409 290.614 48.207 290.263 48.668ZM278.362 53.5225L278.362 53.5225L278.36 53.5246C277.919 53.9739 277.192 53.977 276.737 53.5225C276.284 53.0692 276.284 52.3408 276.737 51.8875L278.959 49.6655L280.585 51.2994L278.362 53.5225Z" fill="#0084C9" stroke="#0084C9" stroke-width="0.7"/>
<path d="M285.578 48.7175L286.04 48.2554L288.612 50.837L288.613 50.8375C288.673 50.8975 288.72 50.9689 288.753 51.0474C288.785 51.1259 288.802 51.21 288.802 51.295C288.802 51.3799 288.785 51.4641 288.753 51.5426C288.72 51.6211 288.673 51.6924 288.613 51.7525C288.553 51.8126 288.481 51.8602 288.403 51.8927C288.324 51.9252 288.24 51.942 288.155 51.942C288.07 51.942 287.986 51.9252 287.908 51.8927C287.829 51.8602 287.758 51.8126 287.698 51.7525L287.45 51.505L287.203 51.7525L278.013 60.9425C277.369 61.5858 276.321 61.5858 275.678 60.9425C275.034 60.2992 275.034 59.2508 275.678 58.6075L282.038 52.2475L282.748 51.5375L282.995 51.29L282.748 51.0425L279.568 47.8625L279.568 47.8625L279.566 47.861C279.459 47.7549 279.374 47.6287 279.315 47.4894C279.257 47.3502 279.227 47.2008 279.227 47.05C279.227 46.8991 279.257 46.7497 279.315 46.6105C279.374 46.4713 279.459 46.345 279.566 46.239L279.566 46.239L279.57 46.2353C280.011 45.7864 280.736 45.7833 281.191 46.2454L281.191 46.2454L281.193 46.2475L284.373 49.4275L284.62 49.6749L284.868 49.4275L285.578 48.7175Z" fill="#0084C9" stroke="#0084C9" stroke-width="0.7"/>
</g>
<line opacity="0.3" x1="214" y1="87.75" x2="352" y2="87.75" stroke="#383838" stroke-width="0.5"/>
<path d="M261.378 113.288H258.787V111.928H261.378C261.829 111.928 262.194 111.855 262.472 111.709C262.75 111.563 262.952 111.363 263.08 111.107C263.212 110.848 263.278 110.551 263.278 110.219C263.278 109.904 263.212 109.61 263.08 109.337C262.952 109.059 262.75 108.836 262.472 108.667C262.194 108.498 261.829 108.414 261.378 108.414H259.313V117H257.598V107.047H261.378C262.148 107.047 262.802 107.184 263.34 107.457C263.882 107.726 264.295 108.1 264.577 108.578C264.86 109.052 265.001 109.594 265.001 110.205C265.001 110.848 264.86 111.399 264.577 111.859C264.295 112.32 263.882 112.673 263.34 112.919C262.802 113.165 262.148 113.288 261.378 113.288ZM268.139 106.5V117H266.484V106.5H268.139ZM274.394 115.257V109.604H276.048V117H274.489L274.394 115.257ZM274.626 113.719L275.18 113.705C275.18 114.202 275.125 114.66 275.016 115.079C274.906 115.494 274.738 115.856 274.51 116.166C274.282 116.471 273.99 116.711 273.635 116.884C273.279 117.052 272.853 117.137 272.356 117.137C271.996 117.137 271.666 117.084 271.365 116.979C271.064 116.875 270.805 116.713 270.586 116.494C270.372 116.275 270.205 115.991 270.087 115.64C269.968 115.289 269.909 114.869 269.909 114.382V109.604H271.557V114.396C271.557 114.664 271.589 114.89 271.652 115.072C271.716 115.25 271.803 115.394 271.912 115.503C272.021 115.612 272.149 115.69 272.295 115.735C272.441 115.781 272.596 115.804 272.76 115.804C273.229 115.804 273.598 115.713 273.867 115.53C274.141 115.343 274.334 115.093 274.448 114.778C274.567 114.464 274.626 114.111 274.626 113.719ZM279.384 111.107V117H277.736V109.604H279.288L279.384 111.107ZM279.117 113.028L278.557 113.021C278.557 112.511 278.62 112.039 278.748 111.606C278.876 111.174 279.062 110.798 279.309 110.479C279.555 110.155 279.86 109.907 280.225 109.733C280.594 109.556 281.02 109.467 281.503 109.467C281.84 109.467 282.148 109.517 282.426 109.617C282.708 109.713 282.952 109.866 283.157 110.075C283.367 110.285 283.526 110.554 283.636 110.882C283.75 111.21 283.807 111.606 283.807 112.071V117H282.159V112.215C282.159 111.855 282.104 111.572 281.995 111.367C281.89 111.162 281.738 111.016 281.537 110.93C281.341 110.839 281.106 110.793 280.833 110.793C280.523 110.793 280.259 110.852 280.04 110.971C279.826 111.089 279.65 111.251 279.514 111.456C279.377 111.661 279.277 111.898 279.213 112.167C279.149 112.436 279.117 112.723 279.117 113.028ZM283.704 112.591L282.932 112.762C282.932 112.315 282.993 111.894 283.116 111.497C283.244 111.096 283.428 110.745 283.67 110.444C283.916 110.139 284.219 109.9 284.579 109.727C284.939 109.553 285.352 109.467 285.816 109.467C286.195 109.467 286.532 109.519 286.828 109.624C287.129 109.724 287.384 109.884 287.594 110.103C287.803 110.321 287.963 110.606 288.072 110.957C288.182 111.303 288.236 111.723 288.236 112.215V117H286.582V112.208C286.582 111.834 286.527 111.545 286.418 111.34C286.313 111.135 286.163 110.993 285.967 110.916C285.771 110.834 285.536 110.793 285.263 110.793C285.007 110.793 284.782 110.841 284.586 110.937C284.395 111.028 284.233 111.158 284.101 111.326C283.968 111.49 283.868 111.679 283.8 111.894C283.736 112.108 283.704 112.34 283.704 112.591ZM289.938 106.5H291.586V115.421L291.429 117H289.938V106.5ZM296.412 113.233V113.377C296.412 113.924 296.351 114.427 296.228 114.888C296.109 115.343 295.927 115.74 295.681 116.077C295.439 116.414 295.138 116.676 294.778 116.863C294.423 117.046 294.01 117.137 293.541 117.137C293.081 117.137 292.68 117.05 292.338 116.877C291.996 116.704 291.709 116.458 291.477 116.139C291.249 115.82 291.064 115.439 290.923 114.997C290.782 114.555 290.681 114.067 290.622 113.534V113.076C290.681 112.538 290.782 112.051 290.923 111.613C291.064 111.171 291.249 110.791 291.477 110.472C291.709 110.148 291.994 109.9 292.331 109.727C292.673 109.553 293.072 109.467 293.527 109.467C294.001 109.467 294.418 109.558 294.778 109.74C295.143 109.923 295.446 110.182 295.688 110.52C295.929 110.852 296.109 111.249 296.228 111.709C296.351 112.169 296.412 112.677 296.412 113.233ZM294.765 113.377V113.233C294.765 112.901 294.737 112.589 294.683 112.297C294.628 112.001 294.537 111.741 294.409 111.518C294.286 111.294 294.118 111.119 293.903 110.991C293.694 110.859 293.432 110.793 293.117 110.793C292.826 110.793 292.575 110.843 292.365 110.943C292.156 111.044 291.98 111.18 291.839 111.354C291.698 111.527 291.586 111.727 291.504 111.955C291.426 112.183 291.374 112.429 291.347 112.693V113.931C291.388 114.272 291.474 114.587 291.606 114.874C291.743 115.157 291.935 115.384 292.181 115.558C292.427 115.726 292.743 115.811 293.131 115.811C293.436 115.811 293.694 115.749 293.903 115.626C294.113 115.503 294.279 115.332 294.402 115.113C294.53 114.89 294.621 114.63 294.676 114.334C294.735 114.038 294.765 113.719 294.765 113.377ZM301.067 117.137C300.521 117.137 300.026 117.048 299.584 116.87C299.146 116.688 298.773 116.435 298.463 116.111C298.158 115.788 297.923 115.407 297.759 114.97C297.595 114.532 297.513 114.061 297.513 113.555V113.281C297.513 112.702 297.597 112.178 297.766 111.709C297.934 111.24 298.169 110.839 298.47 110.506C298.771 110.169 299.126 109.911 299.536 109.733C299.946 109.556 300.391 109.467 300.869 109.467C301.398 109.467 301.86 109.556 302.257 109.733C302.653 109.911 302.981 110.162 303.241 110.485C303.506 110.804 303.701 111.185 303.829 111.627C303.961 112.069 304.027 112.557 304.027 113.09V113.794H298.312V112.611H302.4V112.481C302.391 112.185 302.332 111.907 302.223 111.647C302.118 111.388 301.956 111.178 301.737 111.019C301.519 110.859 301.227 110.779 300.862 110.779C300.589 110.779 300.345 110.839 300.131 110.957C299.921 111.071 299.746 111.237 299.604 111.456C299.463 111.675 299.354 111.939 299.276 112.249C299.203 112.554 299.167 112.898 299.167 113.281V113.555C299.167 113.878 299.21 114.179 299.297 114.457C299.388 114.73 299.52 114.97 299.693 115.175C299.867 115.38 300.076 115.542 300.322 115.66C300.568 115.774 300.849 115.831 301.163 115.831C301.56 115.831 301.913 115.751 302.223 115.592C302.533 115.432 302.801 115.207 303.029 114.915L303.897 115.756C303.738 115.988 303.531 116.212 303.275 116.426C303.02 116.635 302.708 116.806 302.339 116.938C301.974 117.071 301.55 117.137 301.067 117.137ZM306.967 111.012V117H305.319V109.604H306.892L306.967 111.012ZM309.229 109.556L309.216 111.087C309.116 111.069 309.006 111.055 308.888 111.046C308.774 111.037 308.66 111.032 308.546 111.032C308.263 111.032 308.015 111.073 307.801 111.155C307.587 111.233 307.407 111.347 307.261 111.497C307.119 111.643 307.01 111.821 306.933 112.03C306.855 112.24 306.81 112.475 306.796 112.734L306.42 112.762C306.42 112.297 306.465 111.866 306.557 111.47C306.648 111.073 306.785 110.725 306.967 110.424C307.154 110.123 307.386 109.888 307.664 109.72C307.947 109.551 308.272 109.467 308.642 109.467C308.742 109.467 308.849 109.476 308.963 109.494C309.081 109.512 309.17 109.533 309.229 109.556Z" fill="#1E1E1E"/>
</g>
<g filter="url(#filter2_d_1295_187313)">
<rect x="377" y="16" width="156" height="120" rx="5" fill="white"/>
<g opacity="0.9">
<rect x="435" y="32" width="40" height="40" rx="5" fill="#002478" fill-opacity="0.1"/>
<path d="M456.133 51.3832L454.909 50.1588C454.628 49.8784 454.248 49.7204 453.852 49.7194C453.455 49.7183 453.075 49.8743 452.793 50.1532L444.283 58.0062C443.974 58.2982 443.77 58.6704 443.751 59.0871C443.742 59.2938 443.776 59.5001 443.85 59.6932C443.925 59.8863 444.038 60.062 444.183 60.2093L446.011 62.0576C446.012 62.0588 446.013 62.0599 446.015 62.0609C446.297 62.3425 446.679 62.5011 447.078 62.5024H447.133C447.55 62.487 447.923 62.2915 448.22 61.9789L456.127 53.5085C456.268 53.3695 456.379 53.2042 456.455 53.022C456.531 52.8398 456.571 52.6444 456.571 52.447C456.572 52.2495 456.533 52.0539 456.458 51.8713C456.383 51.6888 456.272 51.5229 456.133 51.3832V51.3832ZM465.969 48.9087L465.954 48.8942L464.348 47.3042C464.254 47.2104 464.142 47.1362 464.019 47.0858C463.896 47.0354 463.764 47.0099 463.632 47.0107C463.416 47.0109 463.207 47.0788 463.032 47.2048C463.032 47.1846 463.035 47.1649 463.036 47.1476C463.057 46.8429 463.09 46.3826 462.793 45.9654C462.439 45.4884 462.05 45.0381 461.63 44.6182C461.629 44.6169 461.628 44.6156 461.626 44.6145C461.002 43.9995 459.643 42.8412 457.561 41.9923C456.772 41.6683 455.927 41.5019 455.073 41.5024C453.594 41.5024 452.469 42.1699 452.038 42.5656C451.794 42.7985 451.572 43.053 451.373 43.3259C451.279 43.4566 451.229 43.6145 451.231 43.776C451.233 43.9374 451.287 44.0939 451.385 44.2221C451.484 44.3502 451.621 44.4433 451.776 44.4874C451.931 44.5315 452.097 44.5243 452.248 44.4668C452.379 44.4177 452.513 44.3765 452.65 44.3435C452.934 44.2835 453.225 44.2653 453.515 44.2896C454.133 44.3407 454.864 44.6478 455.188 44.9032C455.736 45.3443 456 45.9387 456.043 46.8293C456.052 47.0084 455.682 47.6796 455.106 48.4456C454.996 48.5901 454.943 48.7695 454.955 48.9505C454.968 49.1315 455.045 49.3018 455.174 49.4299L456.787 51.0429C456.922 51.1788 457.105 51.2575 457.297 51.2629C457.489 51.2683 457.675 51.2 457.818 51.072C458.274 50.6646 458.969 50.0506 459.212 49.9001C459.572 49.6784 459.83 49.6357 459.901 49.6282C460.084 49.6102 460.269 49.6492 460.43 49.7398C460.431 49.7478 460.43 49.7559 460.427 49.7636C460.425 49.7712 460.421 49.7783 460.415 49.7843L460.33 49.8654L460.316 49.8785C460.222 49.9725 460.147 50.0841 460.096 50.207C460.045 50.3299 460.019 50.4617 460.019 50.5948C460.02 50.7279 460.046 50.8596 460.097 50.9823C460.149 51.1051 460.224 51.2165 460.318 51.3101L461.924 52.8996C462.019 52.9934 462.13 53.0675 462.253 53.1178C462.376 53.1681 462.508 53.1935 462.641 53.1926C462.907 53.193 463.164 53.0886 463.354 52.902L465.956 50.3323C465.965 50.3234 465.973 50.314 465.982 50.3046C466.156 50.1133 466.252 49.863 466.25 49.6041C466.247 49.3451 466.147 49.0967 465.969 48.9087V48.9087Z" fill="#002478"/>
</g>
<line opacity="0.3" x1="386" y1="87.75" x2="524" y2="87.75" stroke="#383838" stroke-width="0.5"/>
<path d="M430.924 113.76H432.633C432.578 114.411 432.396 114.993 432.086 115.503C431.776 116.009 431.341 116.408 430.78 116.699C430.22 116.991 429.538 117.137 428.736 117.137C428.121 117.137 427.567 117.027 427.075 116.809C426.583 116.585 426.161 116.271 425.811 115.865C425.46 115.455 425.191 114.961 425.004 114.382C424.822 113.803 424.73 113.156 424.73 112.44V111.613C424.73 110.898 424.824 110.251 425.011 109.672C425.202 109.093 425.476 108.599 425.831 108.188C426.187 107.774 426.613 107.457 427.109 107.238C427.611 107.02 428.174 106.91 428.798 106.91C429.591 106.91 430.261 107.056 430.808 107.348C431.354 107.639 431.778 108.043 432.079 108.558C432.384 109.073 432.571 109.663 432.64 110.328H430.931C430.885 109.9 430.785 109.533 430.63 109.228C430.479 108.922 430.256 108.69 429.96 108.53C429.664 108.366 429.276 108.284 428.798 108.284C428.406 108.284 428.064 108.357 427.772 108.503C427.481 108.649 427.237 108.863 427.041 109.146C426.845 109.428 426.697 109.777 426.597 110.191C426.501 110.602 426.453 111.071 426.453 111.6V112.44C426.453 112.942 426.496 113.397 426.583 113.808C426.674 114.213 426.811 114.562 426.993 114.854C427.18 115.145 427.417 115.371 427.704 115.53C427.991 115.69 428.335 115.77 428.736 115.77C429.224 115.77 429.618 115.692 429.919 115.537C430.224 115.382 430.454 115.157 430.609 114.86C430.769 114.56 430.874 114.193 430.924 113.76ZM438.197 115.517V111.989C438.197 111.725 438.149 111.497 438.054 111.306C437.958 111.114 437.812 110.966 437.616 110.861C437.425 110.757 437.183 110.704 436.892 110.704C436.623 110.704 436.39 110.75 436.194 110.841C435.998 110.932 435.846 111.055 435.736 111.21C435.627 111.365 435.572 111.54 435.572 111.736H433.932C433.932 111.445 434.002 111.162 434.144 110.889C434.285 110.615 434.49 110.371 434.759 110.157C435.028 109.943 435.349 109.774 435.723 109.651C436.096 109.528 436.516 109.467 436.98 109.467C437.536 109.467 438.029 109.56 438.457 109.747C438.89 109.934 439.229 110.216 439.476 110.595C439.726 110.968 439.852 111.438 439.852 112.003V115.291C439.852 115.628 439.874 115.931 439.92 116.2C439.97 116.465 440.041 116.695 440.132 116.891V117H438.443C438.366 116.822 438.304 116.597 438.259 116.323C438.218 116.045 438.197 115.776 438.197 115.517ZM438.437 112.502L438.45 113.521H437.268C436.962 113.521 436.693 113.55 436.461 113.609C436.229 113.664 436.035 113.746 435.88 113.855C435.725 113.965 435.609 114.097 435.531 114.252C435.454 114.407 435.415 114.582 435.415 114.778C435.415 114.974 435.461 115.154 435.552 115.318C435.643 115.478 435.775 115.603 435.948 115.694C436.126 115.785 436.34 115.831 436.591 115.831C436.928 115.831 437.222 115.763 437.473 115.626C437.728 115.485 437.928 115.314 438.074 115.113C438.22 114.908 438.298 114.715 438.307 114.532L438.84 115.264C438.785 115.451 438.692 115.651 438.56 115.865C438.427 116.079 438.254 116.285 438.04 116.48C437.83 116.672 437.577 116.829 437.281 116.952C436.99 117.075 436.652 117.137 436.27 117.137C435.786 117.137 435.356 117.041 434.978 116.85C434.599 116.654 434.303 116.392 434.089 116.063C433.875 115.731 433.768 115.355 433.768 114.936C433.768 114.544 433.84 114.197 433.986 113.896C434.137 113.591 434.355 113.336 434.643 113.131C434.934 112.926 435.29 112.771 435.709 112.666C436.128 112.557 436.607 112.502 437.145 112.502H438.437ZM443.229 111.012V117H441.581V109.604H443.153L443.229 111.012ZM445.491 109.556L445.478 111.087C445.377 111.069 445.268 111.055 445.149 111.046C445.035 111.037 444.922 111.032 444.808 111.032C444.525 111.032 444.277 111.073 444.062 111.155C443.848 111.233 443.668 111.347 443.522 111.497C443.381 111.643 443.272 111.821 443.194 112.03C443.117 112.24 443.071 112.475 443.058 112.734L442.682 112.762C442.682 112.297 442.727 111.866 442.818 111.47C442.91 111.073 443.046 110.725 443.229 110.424C443.415 110.123 443.648 109.888 443.926 109.72C444.208 109.551 444.534 109.467 444.903 109.467C445.004 109.467 445.111 109.476 445.225 109.494C445.343 109.512 445.432 109.533 445.491 109.556ZM448.178 111.025V119.844H446.53V109.604H448.048L448.178 111.025ZM452.997 113.233V113.377C452.997 113.915 452.933 114.414 452.806 114.874C452.683 115.33 452.498 115.729 452.252 116.07C452.01 116.408 451.712 116.67 451.356 116.856C451.001 117.043 450.591 117.137 450.126 117.137C449.666 117.137 449.262 117.052 448.916 116.884C448.574 116.711 448.285 116.467 448.048 116.152C447.811 115.838 447.619 115.469 447.474 115.045C447.332 114.617 447.232 114.147 447.173 113.637V113.083C447.232 112.541 447.332 112.049 447.474 111.606C447.619 111.164 447.811 110.784 448.048 110.465C448.285 110.146 448.574 109.9 448.916 109.727C449.258 109.553 449.657 109.467 450.112 109.467C450.577 109.467 450.99 109.558 451.35 109.74C451.71 109.918 452.013 110.173 452.259 110.506C452.505 110.834 452.689 111.23 452.812 111.695C452.936 112.156 452.997 112.668 452.997 113.233ZM451.35 113.377V113.233C451.35 112.892 451.318 112.575 451.254 112.283C451.19 111.987 451.09 111.727 450.953 111.504C450.816 111.281 450.641 111.107 450.427 110.984C450.217 110.857 449.964 110.793 449.668 110.793C449.376 110.793 449.126 110.843 448.916 110.943C448.706 111.039 448.531 111.174 448.39 111.347C448.248 111.52 448.139 111.723 448.062 111.955C447.984 112.183 447.929 112.431 447.897 112.7V114.026C447.952 114.354 448.046 114.655 448.178 114.929C448.31 115.202 448.497 115.421 448.738 115.585C448.984 115.744 449.299 115.824 449.682 115.824C449.978 115.824 450.231 115.76 450.44 115.633C450.65 115.505 450.821 115.33 450.953 115.106C451.09 114.879 451.19 114.617 451.254 114.32C451.318 114.024 451.35 113.71 451.35 113.377ZM457.659 117.137C457.112 117.137 456.618 117.048 456.176 116.87C455.738 116.688 455.365 116.435 455.055 116.111C454.749 115.788 454.515 115.407 454.351 114.97C454.187 114.532 454.104 114.061 454.104 113.555V113.281C454.104 112.702 454.189 112.178 454.357 111.709C454.526 111.24 454.761 110.839 455.062 110.506C455.362 110.169 455.718 109.911 456.128 109.733C456.538 109.556 456.982 109.467 457.461 109.467C457.99 109.467 458.452 109.556 458.849 109.733C459.245 109.911 459.573 110.162 459.833 110.485C460.097 110.804 460.293 111.185 460.421 111.627C460.553 112.069 460.619 112.557 460.619 113.09V113.794H454.904V112.611H458.992V112.481C458.983 112.185 458.924 111.907 458.814 111.647C458.71 111.388 458.548 111.178 458.329 111.019C458.11 110.859 457.819 110.779 457.454 110.779C457.181 110.779 456.937 110.839 456.723 110.957C456.513 111.071 456.338 111.237 456.196 111.456C456.055 111.675 455.946 111.939 455.868 112.249C455.795 112.554 455.759 112.898 455.759 113.281V113.555C455.759 113.878 455.802 114.179 455.889 114.457C455.98 114.73 456.112 114.97 456.285 115.175C456.458 115.38 456.668 115.542 456.914 115.66C457.16 115.774 457.44 115.831 457.755 115.831C458.151 115.831 458.505 115.751 458.814 115.592C459.124 115.432 459.393 115.207 459.621 114.915L460.489 115.756C460.33 115.988 460.122 116.212 459.867 116.426C459.612 116.635 459.3 116.806 458.931 116.938C458.566 117.071 458.142 117.137 457.659 117.137ZM463.538 111.183V117H461.891V109.604H463.442L463.538 111.183ZM463.244 113.028L462.711 113.021C462.715 112.497 462.788 112.017 462.93 111.579C463.076 111.142 463.276 110.766 463.531 110.451C463.791 110.137 464.101 109.895 464.461 109.727C464.821 109.553 465.222 109.467 465.664 109.467C466.02 109.467 466.341 109.517 466.628 109.617C466.92 109.713 467.168 109.87 467.373 110.089C467.583 110.308 467.742 110.592 467.852 110.943C467.961 111.29 468.016 111.716 468.016 112.222V117H466.361V112.215C466.361 111.859 466.309 111.579 466.204 111.374C466.104 111.164 465.956 111.016 465.76 110.93C465.568 110.839 465.329 110.793 465.042 110.793C464.759 110.793 464.507 110.852 464.283 110.971C464.06 111.089 463.871 111.251 463.716 111.456C463.565 111.661 463.449 111.898 463.367 112.167C463.285 112.436 463.244 112.723 463.244 113.028ZM473.088 109.604V110.807H468.918V109.604H473.088ZM470.121 107.792H471.769V114.956C471.769 115.184 471.8 115.359 471.864 115.482C471.933 115.601 472.026 115.681 472.145 115.722C472.263 115.763 472.402 115.783 472.562 115.783C472.675 115.783 472.785 115.776 472.89 115.763C472.994 115.749 473.079 115.735 473.143 115.722L473.149 116.979C473.013 117.021 472.853 117.057 472.671 117.089C472.493 117.121 472.288 117.137 472.056 117.137C471.677 117.137 471.342 117.071 471.051 116.938C470.759 116.802 470.531 116.581 470.367 116.275C470.203 115.97 470.121 115.564 470.121 115.059V107.792ZM477.62 117.137C477.073 117.137 476.579 117.048 476.137 116.87C475.699 116.688 475.326 116.435 475.016 116.111C474.71 115.788 474.476 115.407 474.312 114.97C474.147 114.532 474.065 114.061 474.065 113.555V113.281C474.065 112.702 474.15 112.178 474.318 111.709C474.487 111.24 474.722 110.839 475.022 110.506C475.323 110.169 475.679 109.911 476.089 109.733C476.499 109.556 476.943 109.467 477.422 109.467C477.951 109.467 478.413 109.556 478.81 109.733C479.206 109.911 479.534 110.162 479.794 110.485C480.058 110.804 480.254 111.185 480.382 111.627C480.514 112.069 480.58 112.557 480.58 113.09V113.794H474.865V112.611H478.953V112.481C478.944 112.185 478.885 111.907 478.775 111.647C478.671 111.388 478.509 111.178 478.29 111.019C478.071 110.859 477.78 110.779 477.415 110.779C477.142 110.779 476.898 110.839 476.684 110.957C476.474 111.071 476.299 111.237 476.157 111.456C476.016 111.675 475.907 111.939 475.829 112.249C475.756 112.554 475.72 112.898 475.72 113.281V113.555C475.72 113.878 475.763 114.179 475.85 114.457C475.941 114.73 476.073 114.97 476.246 115.175C476.419 115.38 476.629 115.542 476.875 115.66C477.121 115.774 477.401 115.831 477.716 115.831C478.112 115.831 478.465 115.751 478.775 115.592C479.085 115.432 479.354 115.207 479.582 114.915L480.45 115.756C480.291 115.988 480.083 116.212 479.828 116.426C479.573 116.635 479.261 116.806 478.892 116.938C478.527 117.071 478.103 117.137 477.62 117.137ZM483.52 111.012V117H481.872V109.604H483.444L483.52 111.012ZM485.782 109.556L485.769 111.087C485.668 111.069 485.559 111.055 485.44 111.046C485.326 111.037 485.213 111.032 485.099 111.032C484.816 111.032 484.568 111.073 484.354 111.155C484.139 111.233 483.959 111.347 483.813 111.497C483.672 111.643 483.563 111.821 483.485 112.03C483.408 112.24 483.362 112.475 483.349 112.734L482.973 112.762C482.973 112.297 483.018 111.866 483.109 111.47C483.201 111.073 483.337 110.725 483.52 110.424C483.706 110.123 483.939 109.888 484.217 109.72C484.499 109.551 484.825 109.467 485.194 109.467C485.295 109.467 485.402 109.476 485.516 109.494C485.634 109.512 485.723 109.533 485.782 109.556Z" fill="#1E1E1E"/>
</g>
<g filter="url(#filter3_d_1295_187313)">
<rect x="549" y="16" width="156" height="120" rx="5" fill="white"/>
<line opacity="0.3" x1="558" y1="87.75" x2="696" y2="87.75" stroke="#383838" stroke-width="0.5"/>
</g>
<g filter="url(#filter4_d_1295_187313)">
<rect x="33" y="152" width="156" height="120" rx="5" fill="white"/>
<g opacity="0.9">
<rect x="91" y="168" width="40" height="40" rx="5" fill="#8501B8" fill-opacity="0.1"/>
<path d="M112.2 179.6C112.2 179.282 112.073 178.977 111.848 178.751C111.623 178.526 111.318 178.4 111 178.4C110.682 178.4 110.376 178.526 110.151 178.751C109.926 178.977 109.8 179.282 109.8 179.6V180.8C109.8 181.118 109.926 181.424 110.151 181.649C110.376 181.874 110.682 182 111 182C111.318 182 111.623 181.874 111.848 181.649C112.073 181.424 112.2 181.118 112.2 180.8V179.6ZM117.788 182.908C118.007 182.682 118.128 182.379 118.125 182.064C118.122 181.75 117.996 181.449 117.774 181.226C117.551 181.004 117.25 180.878 116.936 180.875C116.621 180.872 116.318 180.993 116.092 181.212L115.243 182.06C115.025 182.286 114.904 182.589 114.906 182.904C114.909 183.219 115.035 183.52 115.258 183.742C115.48 183.965 115.781 184.091 116.096 184.094C116.41 184.096 116.714 183.975 116.94 183.757L117.788 182.908ZM120.6 188C120.6 188.318 120.473 188.624 120.248 188.849C120.023 189.074 119.718 189.2 119.4 189.2H118.2C117.882 189.2 117.576 189.074 117.351 188.849C117.126 188.624 117 188.318 117 188C117 187.682 117.126 187.377 117.351 187.151C117.576 186.926 117.882 186.8 118.2 186.8H119.4C119.718 186.8 120.023 186.926 120.248 187.151C120.473 187.377 120.6 187.682 120.6 188ZM105.06 183.757C105.171 183.871 105.303 183.963 105.449 184.026C105.596 184.089 105.753 184.122 105.913 184.123C106.072 184.125 106.23 184.094 106.377 184.034C106.525 183.973 106.659 183.884 106.772 183.772C106.884 183.659 106.973 183.525 107.034 183.378C107.094 183.23 107.124 183.072 107.123 182.913C107.122 182.753 107.089 182.596 107.026 182.45C106.963 182.303 106.871 182.171 106.757 182.06L105.908 181.212C105.682 180.993 105.379 180.872 105.064 180.875C104.75 180.878 104.449 181.004 104.226 181.226C104.004 181.449 103.877 181.75 103.875 182.064C103.872 182.379 103.993 182.682 104.212 182.908L105.06 183.757ZM105 188C105 188.318 104.873 188.624 104.648 188.849C104.423 189.074 104.118 189.2 103.8 189.2H102.6C102.282 189.2 101.976 189.074 101.751 188.849C101.526 188.624 101.4 188.318 101.4 188C101.4 187.682 101.526 187.377 101.751 187.151C101.976 186.926 102.282 186.8 102.6 186.8H103.8C104.118 186.8 104.423 186.926 104.648 187.151C104.873 187.377 105 187.682 105 188ZM108.6 195.2V194H113.4V195.2C113.4 195.837 113.147 196.447 112.697 196.897C112.247 197.347 111.636 197.6 111 197.6C110.363 197.6 109.753 197.347 109.303 196.897C108.853 196.447 108.6 195.837 108.6 195.2ZM113.4 192.8C113.418 192.392 113.65 192.025 113.972 191.769C114.756 191.152 115.327 190.305 115.607 189.348C115.887 188.39 115.862 187.37 115.535 186.427C115.208 185.485 114.596 184.668 113.783 184.089C112.97 183.511 111.997 183.2 111 183.2C110.002 183.2 109.03 183.511 108.217 184.089C107.404 184.668 106.792 185.485 106.465 186.427C106.138 187.37 106.113 188.39 106.393 189.348C106.673 190.305 107.244 191.152 108.028 191.769C108.352 192.025 108.582 192.392 108.599 192.8H113.401H113.4Z" fill="#8501B8"/>
</g>
<line opacity="0.3" x1="42" y1="223.75" x2="180" y2="223.75" stroke="#383838" stroke-width="0.5"/>
<path d="M85.6729 251.64V253H80.3887V251.64H85.6729ZM80.874 243.047V253H79.1582V243.047H80.874ZM84.9824 247.203V248.543H80.3887V247.203H84.9824ZM85.6387 243.047V244.414H80.3887V243.047H85.6387ZM88.6738 242.5V253H87.0195V242.5H88.6738ZM93.7393 253.137C93.1924 253.137 92.6979 253.048 92.2559 252.87C91.8184 252.688 91.4447 252.435 91.1348 252.111C90.8294 251.788 90.5947 251.407 90.4307 250.97C90.2666 250.532 90.1846 250.061 90.1846 249.555V249.281C90.1846 248.702 90.2689 248.178 90.4375 247.709C90.6061 247.24 90.8408 246.839 91.1416 246.506C91.4424 246.169 91.7979 245.911 92.208 245.733C92.6182 245.556 93.0625 245.467 93.541 245.467C94.0697 245.467 94.5322 245.556 94.9287 245.733C95.3252 245.911 95.6533 246.162 95.9131 246.485C96.1774 246.804 96.3734 247.185 96.501 247.627C96.6331 248.069 96.6992 248.557 96.6992 249.09V249.794H90.9844V248.611H95.0723V248.481C95.0632 248.185 95.0039 247.907 94.8945 247.647C94.7897 247.388 94.6279 247.178 94.4092 247.019C94.1904 246.859 93.8988 246.779 93.5342 246.779C93.2607 246.779 93.0169 246.839 92.8027 246.957C92.5931 247.071 92.4176 247.237 92.2764 247.456C92.1351 247.675 92.0257 247.939 91.9482 248.249C91.8753 248.554 91.8389 248.898 91.8389 249.281V249.555C91.8389 249.878 91.8822 250.179 91.9688 250.457C92.0599 250.73 92.1921 250.97 92.3652 251.175C92.5384 251.38 92.748 251.542 92.9941 251.66C93.2402 251.774 93.5205 251.831 93.835 251.831C94.2314 251.831 94.5846 251.751 94.8945 251.592C95.2044 251.432 95.4733 251.207 95.7012 250.915L96.5693 251.756C96.4098 251.988 96.2025 252.212 95.9473 252.426C95.6921 252.635 95.3799 252.806 95.0107 252.938C94.6462 253.071 94.2223 253.137 93.7393 253.137ZM101.006 251.824C101.275 251.824 101.516 251.772 101.73 251.667C101.949 251.558 102.125 251.407 102.257 251.216C102.394 251.024 102.469 250.803 102.482 250.553H104.034C104.025 251.031 103.884 251.466 103.61 251.858C103.337 252.25 102.975 252.562 102.523 252.795C102.072 253.023 101.573 253.137 101.026 253.137C100.461 253.137 99.9691 253.041 99.5498 252.85C99.1305 252.654 98.7819 252.385 98.5039 252.043C98.2259 251.701 98.0163 251.307 97.875 250.86C97.7383 250.414 97.6699 249.935 97.6699 249.425V249.186C97.6699 248.675 97.7383 248.197 97.875 247.75C98.0163 247.299 98.2259 246.902 98.5039 246.561C98.7819 246.219 99.1305 245.952 99.5498 245.761C99.9691 245.565 100.459 245.467 101.02 245.467C101.612 245.467 102.132 245.585 102.578 245.822C103.025 246.055 103.376 246.381 103.631 246.8C103.891 247.215 104.025 247.698 104.034 248.249H102.482C102.469 247.976 102.4 247.729 102.277 247.511C102.159 247.287 101.99 247.11 101.771 246.978C101.557 246.845 101.3 246.779 100.999 246.779C100.666 246.779 100.391 246.848 100.172 246.984C99.9531 247.117 99.7822 247.299 99.6592 247.531C99.5361 247.759 99.4473 248.017 99.3926 248.304C99.3424 248.586 99.3174 248.88 99.3174 249.186V249.425C99.3174 249.73 99.3424 250.026 99.3926 250.313C99.4427 250.601 99.5293 250.858 99.6523 251.086C99.7799 251.309 99.9531 251.489 100.172 251.626C100.391 251.758 100.669 251.824 101.006 251.824ZM108.689 245.604V246.807H104.52V245.604H108.689ZM105.723 243.792H107.37V250.956C107.37 251.184 107.402 251.359 107.466 251.482C107.534 251.601 107.628 251.681 107.746 251.722C107.865 251.763 108.004 251.783 108.163 251.783C108.277 251.783 108.386 251.776 108.491 251.763C108.596 251.749 108.68 251.735 108.744 251.722L108.751 252.979C108.614 253.021 108.455 253.057 108.272 253.089C108.095 253.121 107.89 253.137 107.657 253.137C107.279 253.137 106.944 253.071 106.652 252.938C106.361 252.802 106.133 252.581 105.969 252.275C105.805 251.97 105.723 251.564 105.723 251.059V243.792ZM111.615 247.012V253H109.968V245.604H111.54L111.615 247.012ZM113.878 245.556L113.864 247.087C113.764 247.069 113.655 247.055 113.536 247.046C113.422 247.037 113.308 247.032 113.194 247.032C112.912 247.032 112.663 247.073 112.449 247.155C112.235 247.233 112.055 247.347 111.909 247.497C111.768 247.643 111.659 247.821 111.581 248.03C111.504 248.24 111.458 248.475 111.444 248.734L111.068 248.762C111.068 248.297 111.114 247.866 111.205 247.47C111.296 247.073 111.433 246.725 111.615 246.424C111.802 246.123 112.035 245.888 112.312 245.72C112.595 245.551 112.921 245.467 113.29 245.467C113.39 245.467 113.497 245.476 113.611 245.494C113.73 245.512 113.819 245.533 113.878 245.556ZM116.674 245.604V253H115.02V245.604H116.674ZM114.91 243.662C114.91 243.411 114.992 243.204 115.156 243.04C115.325 242.871 115.557 242.787 115.854 242.787C116.145 242.787 116.375 242.871 116.544 243.04C116.713 243.204 116.797 243.411 116.797 243.662C116.797 243.908 116.713 244.113 116.544 244.277C116.375 244.441 116.145 244.523 115.854 244.523C115.557 244.523 115.325 244.441 115.156 244.277C114.992 244.113 114.91 243.908 114.91 243.662ZM121.5 251.824C121.769 251.824 122.01 251.772 122.225 251.667C122.443 251.558 122.619 251.407 122.751 251.216C122.888 251.024 122.963 250.803 122.977 250.553H124.528C124.519 251.031 124.378 251.466 124.104 251.858C123.831 252.25 123.469 252.562 123.018 252.795C122.566 253.023 122.067 253.137 121.521 253.137C120.955 253.137 120.463 253.041 120.044 252.85C119.625 252.654 119.276 252.385 118.998 252.043C118.72 251.701 118.51 251.307 118.369 250.86C118.232 250.414 118.164 249.935 118.164 249.425V249.186C118.164 248.675 118.232 248.197 118.369 247.75C118.51 247.299 118.72 246.902 118.998 246.561C119.276 246.219 119.625 245.952 120.044 245.761C120.463 245.565 120.953 245.467 121.514 245.467C122.106 245.467 122.626 245.585 123.072 245.822C123.519 246.055 123.87 246.381 124.125 246.8C124.385 247.215 124.519 247.698 124.528 248.249H122.977C122.963 247.976 122.895 247.729 122.771 247.511C122.653 247.287 122.484 247.11 122.266 246.978C122.051 246.845 121.794 246.779 121.493 246.779C121.16 246.779 120.885 246.848 120.666 246.984C120.447 247.117 120.276 247.299 120.153 247.531C120.03 247.759 119.941 248.017 119.887 248.304C119.837 248.586 119.812 248.88 119.812 249.186V249.425C119.812 249.73 119.837 250.026 119.887 250.313C119.937 250.601 120.023 250.858 120.146 251.086C120.274 251.309 120.447 251.489 120.666 251.626C120.885 251.758 121.163 251.824 121.5 251.824ZM127.557 245.604V253H125.902V245.604H127.557ZM125.793 243.662C125.793 243.411 125.875 243.204 126.039 243.04C126.208 242.871 126.44 242.787 126.736 242.787C127.028 242.787 127.258 242.871 127.427 243.04C127.595 243.204 127.68 243.411 127.68 243.662C127.68 243.908 127.595 244.113 127.427 244.277C127.258 244.441 127.028 244.523 126.736 244.523C126.44 244.523 126.208 244.441 126.039 244.277C125.875 244.113 125.793 243.908 125.793 243.662ZM133.531 251.517V247.989C133.531 247.725 133.483 247.497 133.388 247.306C133.292 247.114 133.146 246.966 132.95 246.861C132.759 246.757 132.517 246.704 132.226 246.704C131.957 246.704 131.724 246.75 131.528 246.841C131.332 246.932 131.18 247.055 131.07 247.21C130.961 247.365 130.906 247.54 130.906 247.736H129.266C129.266 247.445 129.336 247.162 129.478 246.889C129.619 246.615 129.824 246.371 130.093 246.157C130.362 245.943 130.683 245.774 131.057 245.651C131.43 245.528 131.85 245.467 132.314 245.467C132.87 245.467 133.363 245.56 133.791 245.747C134.224 245.934 134.563 246.216 134.81 246.595C135.06 246.968 135.186 247.438 135.186 248.003V251.291C135.186 251.628 135.208 251.931 135.254 252.2C135.304 252.465 135.375 252.695 135.466 252.891V253H133.777C133.7 252.822 133.638 252.597 133.593 252.323C133.552 252.045 133.531 251.776 133.531 251.517ZM133.771 248.502L133.784 249.521H132.602C132.296 249.521 132.027 249.55 131.795 249.609C131.562 249.664 131.369 249.746 131.214 249.855C131.059 249.965 130.943 250.097 130.865 250.252C130.788 250.407 130.749 250.582 130.749 250.778C130.749 250.974 130.795 251.154 130.886 251.318C130.977 251.478 131.109 251.603 131.282 251.694C131.46 251.785 131.674 251.831 131.925 251.831C132.262 251.831 132.556 251.763 132.807 251.626C133.062 251.485 133.262 251.314 133.408 251.113C133.554 250.908 133.632 250.715 133.641 250.532L134.174 251.264C134.119 251.451 134.026 251.651 133.894 251.865C133.761 252.079 133.588 252.285 133.374 252.48C133.164 252.672 132.911 252.829 132.615 252.952C132.324 253.075 131.986 253.137 131.604 253.137C131.12 253.137 130.69 253.041 130.312 252.85C129.933 252.654 129.637 252.392 129.423 252.063C129.209 251.731 129.102 251.355 129.102 250.936C129.102 250.544 129.174 250.197 129.32 249.896C129.471 249.591 129.689 249.336 129.977 249.131C130.268 248.926 130.624 248.771 131.043 248.666C131.462 248.557 131.941 248.502 132.479 248.502H133.771ZM138.542 247.183V253H136.895V245.604H138.446L138.542 247.183ZM138.248 249.028L137.715 249.021C137.719 248.497 137.792 248.017 137.934 247.579C138.079 247.142 138.28 246.766 138.535 246.451C138.795 246.137 139.105 245.895 139.465 245.727C139.825 245.553 140.226 245.467 140.668 245.467C141.023 245.467 141.345 245.517 141.632 245.617C141.924 245.713 142.172 245.87 142.377 246.089C142.587 246.308 142.746 246.592 142.855 246.943C142.965 247.29 143.02 247.716 143.02 248.222V253H141.365V248.215C141.365 247.859 141.313 247.579 141.208 247.374C141.108 247.164 140.96 247.016 140.764 246.93C140.572 246.839 140.333 246.793 140.046 246.793C139.763 246.793 139.51 246.852 139.287 246.971C139.064 247.089 138.875 247.251 138.72 247.456C138.569 247.661 138.453 247.898 138.371 248.167C138.289 248.436 138.248 248.723 138.248 249.028Z" fill="#1E1E1E"/>
</g>
<g filter="url(#filter5_d_1295_187313)">
<rect x="205" y="152" width="156" height="120" rx="5" fill="white"/>
<g opacity="0.9">
<rect x="263" y="168" width="40" height="40" rx="5" fill="#002478" fill-opacity="0.1"/>
<path d="M282.998 183.5C285.07 183.5 286.748 181.822 286.748 179.75C286.748 177.678 285.07 176 282.998 176C280.926 176 279.248 177.678 279.248 179.75C279.248 181.822 280.926 183.5 282.998 183.5ZM280.495 195.162L281.695 193.662L278.812 191.263L276.661 193.953C276.126 194.619 276.112 195.566 276.623 196.25L278.873 199.25C279.244 199.742 279.806 200 280.373 200C280.762 200 281.161 199.878 281.498 199.625C282.328 199.006 282.492 197.83 281.873 197L280.495 195.162ZM287.184 191.263L284.301 193.662L285.501 195.162L284.123 197C283.505 197.83 283.669 199.006 284.498 199.625C284.836 199.878 285.23 200 285.623 200C286.195 200 286.758 199.742 287.123 199.25L289.373 196.25C289.884 195.566 289.87 194.619 289.336 193.953L287.184 191.263ZM291.656 182.797C291.061 181.948 289.894 181.747 289.045 182.337L287.142 183.673C284.672 185.408 281.32 185.408 278.855 183.673L276.951 182.342C276.103 181.747 274.936 181.953 274.341 182.797C273.745 183.645 273.951 184.812 274.795 185.408L276.698 186.744C277.495 187.302 278.358 187.723 279.248 188.052V189.5H286.748V188.056C287.639 187.728 288.501 187.306 289.298 186.748L291.201 185.413C292.05 184.812 292.251 183.645 291.656 182.797Z" fill="#002478"/>
</g>
<line opacity="0.3" x1="214" y1="223.75" x2="352" y2="223.75" stroke="#383838" stroke-width="0.5"/>
<path d="M255.943 248.502H253.407L253.394 247.251H255.608C255.982 247.251 256.299 247.196 256.559 247.087C256.823 246.973 257.023 246.811 257.16 246.602C257.297 246.387 257.365 246.13 257.365 245.829C257.365 245.496 257.301 245.225 257.174 245.016C257.046 244.806 256.85 244.653 256.586 244.558C256.326 244.462 255.993 244.414 255.588 244.414H253.927V253H252.211V243.047H255.588C256.135 243.047 256.622 243.099 257.051 243.204C257.484 243.309 257.851 243.473 258.151 243.696C258.457 243.915 258.687 244.193 258.842 244.53C259.001 244.868 259.081 245.269 259.081 245.733C259.081 246.144 258.983 246.52 258.787 246.861C258.591 247.199 258.302 247.474 257.919 247.688C257.536 247.903 257.06 248.03 256.49 248.071L255.943 248.502ZM255.868 253H252.867L253.64 251.64H255.868C256.256 251.64 256.579 251.576 256.839 251.448C257.099 251.316 257.292 251.136 257.42 250.908C257.552 250.676 257.618 250.405 257.618 250.095C257.618 249.771 257.561 249.491 257.447 249.254C257.333 249.012 257.153 248.828 256.907 248.7C256.661 248.568 256.34 248.502 255.943 248.502H254.016L254.029 247.251H256.538L256.928 247.723C257.475 247.741 257.924 247.862 258.274 248.085C258.63 248.308 258.894 248.598 259.067 248.953C259.241 249.309 259.327 249.691 259.327 250.102C259.327 250.735 259.188 251.266 258.91 251.694C258.637 252.123 258.243 252.449 257.728 252.672C257.213 252.891 256.593 253 255.868 253ZM265.062 251.517V247.989C265.062 247.725 265.015 247.497 264.919 247.306C264.823 247.114 264.677 246.966 264.481 246.861C264.29 246.757 264.049 246.704 263.757 246.704C263.488 246.704 263.256 246.75 263.06 246.841C262.864 246.932 262.711 247.055 262.602 247.21C262.492 247.365 262.438 247.54 262.438 247.736H260.797C260.797 247.445 260.868 247.162 261.009 246.889C261.15 246.615 261.355 246.371 261.624 246.157C261.893 245.943 262.214 245.774 262.588 245.651C262.962 245.528 263.381 245.467 263.846 245.467C264.402 245.467 264.894 245.56 265.322 245.747C265.755 245.934 266.095 246.216 266.341 246.595C266.591 246.968 266.717 247.438 266.717 248.003V251.291C266.717 251.628 266.74 251.931 266.785 252.2C266.835 252.465 266.906 252.695 266.997 252.891V253H265.309C265.231 252.822 265.17 252.597 265.124 252.323C265.083 252.045 265.062 251.776 265.062 251.517ZM265.302 248.502L265.315 249.521H264.133C263.827 249.521 263.559 249.55 263.326 249.609C263.094 249.664 262.9 249.746 262.745 249.855C262.59 249.965 262.474 250.097 262.396 250.252C262.319 250.407 262.28 250.582 262.28 250.778C262.28 250.974 262.326 251.154 262.417 251.318C262.508 251.478 262.64 251.603 262.813 251.694C262.991 251.785 263.205 251.831 263.456 251.831C263.793 251.831 264.087 251.763 264.338 251.626C264.593 251.485 264.794 251.314 264.939 251.113C265.085 250.908 265.163 250.715 265.172 250.532L265.705 251.264C265.65 251.451 265.557 251.651 265.425 251.865C265.293 252.079 265.119 252.285 264.905 252.48C264.696 252.672 264.443 252.829 264.146 252.952C263.855 253.075 263.518 253.137 263.135 253.137C262.652 253.137 262.221 253.041 261.843 252.85C261.465 252.654 261.168 252.392 260.954 252.063C260.74 251.731 260.633 251.355 260.633 250.936C260.633 250.544 260.706 250.197 260.852 249.896C261.002 249.591 261.221 249.336 261.508 249.131C261.799 248.926 262.155 248.771 262.574 248.666C262.993 248.557 263.472 248.502 264.01 248.502H265.302ZM268.446 242.5H270.094V251.421L269.937 253H268.446V242.5ZM274.92 249.233V249.377C274.92 249.924 274.858 250.427 274.735 250.888C274.617 251.343 274.435 251.74 274.188 252.077C273.947 252.414 273.646 252.676 273.286 252.863C272.931 253.046 272.518 253.137 272.049 253.137C271.589 253.137 271.188 253.05 270.846 252.877C270.504 252.704 270.217 252.458 269.984 252.139C269.757 251.82 269.572 251.439 269.431 250.997C269.289 250.555 269.189 250.067 269.13 249.534V249.076C269.189 248.538 269.289 248.051 269.431 247.613C269.572 247.171 269.757 246.791 269.984 246.472C270.217 246.148 270.502 245.9 270.839 245.727C271.181 245.553 271.579 245.467 272.035 245.467C272.509 245.467 272.926 245.558 273.286 245.74C273.651 245.923 273.954 246.182 274.195 246.52C274.437 246.852 274.617 247.249 274.735 247.709C274.858 248.169 274.92 248.677 274.92 249.233ZM273.272 249.377V249.233C273.272 248.901 273.245 248.589 273.19 248.297C273.136 248.001 273.045 247.741 272.917 247.518C272.794 247.294 272.625 247.119 272.411 246.991C272.201 246.859 271.939 246.793 271.625 246.793C271.333 246.793 271.083 246.843 270.873 246.943C270.663 247.044 270.488 247.18 270.347 247.354C270.205 247.527 270.094 247.727 270.012 247.955C269.934 248.183 269.882 248.429 269.854 248.693V249.931C269.896 250.272 269.982 250.587 270.114 250.874C270.251 251.157 270.442 251.384 270.688 251.558C270.935 251.726 271.251 251.811 271.639 251.811C271.944 251.811 272.201 251.749 272.411 251.626C272.621 251.503 272.787 251.332 272.91 251.113C273.038 250.89 273.129 250.63 273.184 250.334C273.243 250.038 273.272 249.719 273.272 249.377ZM278.379 252.193L280.389 245.604H282.152L279.186 254.128C279.117 254.31 279.028 254.508 278.919 254.723C278.81 254.937 278.666 255.14 278.488 255.331C278.315 255.527 278.099 255.684 277.839 255.803C277.579 255.926 277.265 255.987 276.896 255.987C276.75 255.987 276.608 255.974 276.472 255.946C276.34 255.924 276.214 255.898 276.096 255.871L276.089 254.613C276.134 254.618 276.189 254.622 276.253 254.627C276.321 254.632 276.376 254.634 276.417 254.634C276.69 254.634 276.918 254.6 277.101 254.531C277.283 254.467 277.431 254.363 277.545 254.217C277.663 254.071 277.764 253.875 277.846 253.629L278.379 252.193ZM277.244 245.604L279.001 251.141L279.295 252.877L278.153 253.171L275.467 245.604H277.244ZM287.245 250.997C287.245 250.833 287.204 250.685 287.122 250.553C287.04 250.416 286.883 250.293 286.65 250.184C286.423 250.074 286.085 249.974 285.639 249.883C285.247 249.796 284.887 249.694 284.559 249.575C284.235 249.452 283.957 249.304 283.725 249.131C283.492 248.958 283.312 248.753 283.185 248.516C283.057 248.279 282.993 248.005 282.993 247.695C282.993 247.395 283.059 247.11 283.191 246.841C283.324 246.572 283.513 246.335 283.759 246.13C284.005 245.925 284.303 245.763 284.654 245.645C285.01 245.526 285.406 245.467 285.844 245.467C286.464 245.467 286.994 245.572 287.437 245.781C287.883 245.986 288.225 246.267 288.462 246.622C288.699 246.973 288.817 247.369 288.817 247.812H287.17C287.17 247.616 287.12 247.433 287.02 247.265C286.924 247.091 286.778 246.952 286.582 246.848C286.386 246.738 286.14 246.684 285.844 246.684C285.561 246.684 285.326 246.729 285.14 246.82C284.957 246.907 284.821 247.021 284.729 247.162C284.643 247.303 284.6 247.458 284.6 247.627C284.6 247.75 284.622 247.862 284.668 247.962C284.718 248.058 284.8 248.146 284.914 248.229C285.028 248.306 285.183 248.379 285.379 248.447C285.579 248.516 285.83 248.582 286.131 248.646C286.696 248.764 287.181 248.917 287.587 249.104C287.997 249.286 288.312 249.523 288.53 249.814C288.749 250.102 288.858 250.466 288.858 250.908C288.858 251.236 288.788 251.537 288.646 251.811C288.51 252.079 288.309 252.314 288.045 252.515C287.781 252.711 287.464 252.863 287.095 252.973C286.73 253.082 286.32 253.137 285.864 253.137C285.194 253.137 284.627 253.018 284.162 252.781C283.697 252.54 283.344 252.232 283.103 251.858C282.866 251.48 282.747 251.088 282.747 250.683H284.34C284.358 250.988 284.442 251.232 284.593 251.414C284.748 251.592 284.939 251.722 285.167 251.804C285.399 251.881 285.639 251.92 285.885 251.92C286.181 251.92 286.429 251.881 286.63 251.804C286.83 251.722 286.983 251.612 287.088 251.476C287.193 251.334 287.245 251.175 287.245 250.997ZM292.064 245.604V253H290.41V245.604H292.064ZM290.301 243.662C290.301 243.411 290.383 243.204 290.547 243.04C290.715 242.871 290.948 242.787 291.244 242.787C291.536 242.787 291.766 242.871 291.935 243.04C292.103 243.204 292.188 243.411 292.188 243.662C292.188 243.908 292.103 244.113 291.935 244.277C291.766 244.441 291.536 244.523 291.244 244.523C290.948 244.523 290.715 244.441 290.547 244.277C290.383 244.113 290.301 243.908 290.301 243.662ZM297.26 245.604V246.807H293.09V245.604H297.26ZM294.293 243.792H295.94V250.956C295.94 251.184 295.972 251.359 296.036 251.482C296.104 251.601 296.198 251.681 296.316 251.722C296.435 251.763 296.574 251.783 296.733 251.783C296.847 251.783 296.957 251.776 297.062 251.763C297.166 251.749 297.251 251.735 297.314 251.722L297.321 252.979C297.185 253.021 297.025 253.057 296.843 253.089C296.665 253.121 296.46 253.137 296.228 253.137C295.849 253.137 295.514 253.071 295.223 252.938C294.931 252.802 294.703 252.581 294.539 252.275C294.375 251.97 294.293 251.564 294.293 251.059V243.792ZM301.922 245.604V246.807H297.752V245.604H301.922ZM298.955 243.792H300.603V250.956C300.603 251.184 300.634 251.359 300.698 251.482C300.767 251.601 300.86 251.681 300.979 251.722C301.097 251.763 301.236 251.783 301.396 251.783C301.509 251.783 301.619 251.776 301.724 251.763C301.828 251.749 301.913 251.735 301.977 251.722L301.983 252.979C301.847 253.021 301.687 253.057 301.505 253.089C301.327 253.121 301.122 253.137 300.89 253.137C300.511 253.137 300.176 253.071 299.885 252.938C299.593 252.802 299.365 252.581 299.201 252.275C299.037 251.97 298.955 251.564 298.955 251.059V243.792ZM306.454 253.137C305.907 253.137 305.413 253.048 304.971 252.87C304.533 252.688 304.16 252.435 303.85 252.111C303.544 251.788 303.31 251.407 303.146 250.97C302.981 250.532 302.899 250.061 302.899 249.555V249.281C302.899 248.702 302.984 248.178 303.152 247.709C303.321 247.24 303.556 246.839 303.856 246.506C304.157 246.169 304.513 245.911 304.923 245.733C305.333 245.556 305.777 245.467 306.256 245.467C306.785 245.467 307.247 245.556 307.644 245.733C308.04 245.911 308.368 246.162 308.628 246.485C308.892 246.804 309.088 247.185 309.216 247.627C309.348 248.069 309.414 248.557 309.414 249.09V249.794H303.699V248.611H307.787V248.481C307.778 248.185 307.719 247.907 307.609 247.647C307.505 247.388 307.343 247.178 307.124 247.019C306.905 246.859 306.614 246.779 306.249 246.779C305.976 246.779 305.732 246.839 305.518 246.957C305.308 247.071 305.132 247.237 304.991 247.456C304.85 247.675 304.741 247.939 304.663 248.249C304.59 248.554 304.554 248.898 304.554 249.281V249.555C304.554 249.878 304.597 250.179 304.684 250.457C304.775 250.73 304.907 250.97 305.08 251.175C305.253 251.38 305.463 251.542 305.709 251.66C305.955 251.774 306.235 251.831 306.55 251.831C306.946 251.831 307.299 251.751 307.609 251.592C307.919 251.432 308.188 251.207 308.416 250.915L309.284 251.756C309.125 251.988 308.917 252.212 308.662 252.426C308.407 252.635 308.095 252.806 307.726 252.938C307.361 253.071 306.937 253.137 306.454 253.137ZM312.354 247.012V253H310.706V245.604H312.278L312.354 247.012ZM314.616 245.556L314.603 247.087C314.502 247.069 314.393 247.055 314.274 247.046C314.16 247.037 314.047 247.032 313.933 247.032C313.65 247.032 313.402 247.073 313.188 247.155C312.973 247.233 312.793 247.347 312.647 247.497C312.506 247.643 312.397 247.821 312.319 248.03C312.242 248.24 312.196 248.475 312.183 248.734L311.807 248.762C311.807 248.297 311.852 247.866 311.943 247.47C312.035 247.073 312.171 246.725 312.354 246.424C312.54 246.123 312.773 245.888 313.051 245.72C313.333 245.551 313.659 245.467 314.028 245.467C314.129 245.467 314.236 245.476 314.35 245.494C314.468 245.512 314.557 245.533 314.616 245.556Z" fill="#1E1E1E"/>
</g>
<g filter="url(#filter6_d_1295_187313)">
<rect x="377" y="152" width="156" height="120" rx="5" fill="white"/>
<g opacity="0.9">
<rect x="435" y="168" width="40" height="40" rx="5" fill="#039709" fill-opacity="0.1"/>
<path d="M461.048 188.023C461.433 188.023 461.745 187.712 461.745 187.327C461.745 186.942 461.433 186.63 461.048 186.63C460.663 186.63 460.352 186.942 460.352 187.327C460.352 187.712 460.663 188.023 461.048 188.023Z" stroke="#039709" stroke-width="0.5" stroke-linecap="round" stroke-linejoin="round"/>
<path d="M463.111 190.243C463.573 190.243 463.947 189.869 463.947 189.407C463.947 188.945 463.573 188.571 463.111 188.571C462.649 188.571 462.275 188.945 462.275 189.407C462.275 189.869 462.649 190.243 463.111 190.243Z" stroke="#039709" stroke-width="0.5" stroke-linecap="round" stroke-linejoin="round"/>
<path d="M449.106 181.233L454.758 182.223M450.773 183.238L454.446 183.889M449.706 184.67L454.185 185.452M457.475 191.998L457.336 190.296C456.989 187.994 454.33 187.435 453.508 189.658C452.597 191.54 449.351 193.299 445.799 193.734C447.23 198.357 454.884 197.447 455.93 196.104" stroke="#039709" stroke-width="0.5" stroke-linecap="round" stroke-linejoin="round"/>
<path d="M456.477 193.395C453.987 194.809 456.355 197.179 457.78 196.26C458.815 197.648 461.014 197.385 461.53 196.338C464.473 197.651 465.149 193.551 462.728 193.187C462.19 191.306 460.244 190.98 459.082 192.119C458.088 191.874 457.067 191.486 456.477 193.395ZM447.648 184.703V185.458V184.703ZM447.648 186.635V187.39V186.635ZM448.263 186.047L449.018 186.073L448.263 186.047ZM446.331 186.073H447.086H446.331ZM450.036 189.971L450.551 190.523L450.036 189.971ZM450.551 188.587L450.017 189.121L450.551 188.587ZM448.652 188.623L449.186 189.157L448.652 188.623ZM449.186 189.952L448.652 190.486L449.186 189.952ZM453.508 189.658C454.672 190.628 455.978 190.645 457.337 190.296L453.508 189.658ZM448.489 196.567C451.336 195.602 453.099 194.366 454.081 192.926L448.489 196.567ZM454.055 195.244C453.497 196.016 452.82 196.657 451.672 197.183L454.055 195.244ZM446.551 195.155C448.172 195.11 449.439 194.547 450.67 193.916L446.551 195.155ZM454.856 188.308L456.464 179.722C456.688 178.236 458.438 178.662 458.099 180.008L456.417 188.645" fill="#039709"/>
<path d="M447.648 184.703V185.458M447.648 186.635V187.39M448.263 186.047L449.018 186.073M446.331 186.073H447.086M450.036 189.971L450.551 190.523M450.551 188.587L450.017 189.121M448.652 188.623L449.186 189.157M449.186 189.952L448.652 190.486M453.508 189.658C454.672 190.628 455.978 190.645 457.337 190.296M448.489 196.567C451.336 195.602 453.099 194.366 454.081 192.926M454.055 195.244C453.497 196.016 452.82 196.657 451.672 197.183M446.551 195.155C448.172 195.11 449.439 194.547 450.67 193.916M454.856 188.308L456.464 179.722C456.688 178.236 458.438 178.662 458.099 180.008L456.417 188.645M456.477 193.395C453.987 194.809 456.355 197.179 457.78 196.26C458.815 197.648 461.014 197.385 461.53 196.338C464.473 197.651 465.149 193.551 462.728 193.187C462.19 191.306 460.244 190.98 459.082 192.119C458.088 191.874 457.067 191.486 456.477 193.395Z" stroke="#039709" stroke-width="0.5" stroke-linecap="round" stroke-linejoin="round"/>
</g>
<line opacity="0.3" x1="386" y1="223.75" x2="524" y2="223.75" stroke="#383838" stroke-width="0.5"/>
<path d="M437.883 249.76H439.592C439.537 250.411 439.355 250.993 439.045 251.503C438.735 252.009 438.3 252.408 437.739 252.699C437.179 252.991 436.497 253.137 435.695 253.137C435.08 253.137 434.526 253.027 434.034 252.809C433.542 252.585 433.12 252.271 432.77 251.865C432.419 251.455 432.15 250.961 431.963 250.382C431.781 249.803 431.689 249.156 431.689 248.44V247.613C431.689 246.898 431.783 246.251 431.97 245.672C432.161 245.093 432.435 244.599 432.79 244.188C433.146 243.774 433.572 243.457 434.068 243.238C434.57 243.02 435.132 242.91 435.757 242.91C436.55 242.91 437.22 243.056 437.767 243.348C438.313 243.639 438.737 244.043 439.038 244.558C439.343 245.073 439.53 245.663 439.599 246.328H437.89C437.844 245.9 437.744 245.533 437.589 245.228C437.438 244.922 437.215 244.69 436.919 244.53C436.623 244.366 436.235 244.284 435.757 244.284C435.365 244.284 435.023 244.357 434.731 244.503C434.44 244.649 434.196 244.863 434 245.146C433.804 245.428 433.656 245.777 433.556 246.191C433.46 246.602 433.412 247.071 433.412 247.6V248.44C433.412 248.942 433.455 249.397 433.542 249.808C433.633 250.213 433.77 250.562 433.952 250.854C434.139 251.145 434.376 251.371 434.663 251.53C434.95 251.69 435.294 251.77 435.695 251.77C436.183 251.77 436.577 251.692 436.878 251.537C437.183 251.382 437.413 251.157 437.568 250.86C437.728 250.56 437.833 250.193 437.883 249.76ZM442.75 242.5V253H441.096V242.5H442.75ZM447.815 253.137C447.269 253.137 446.774 253.048 446.332 252.87C445.895 252.688 445.521 252.435 445.211 252.111C444.906 251.788 444.671 251.407 444.507 250.97C444.343 250.532 444.261 250.061 444.261 249.555V249.281C444.261 248.702 444.345 248.178 444.514 247.709C444.682 247.24 444.917 246.839 445.218 246.506C445.519 246.169 445.874 245.911 446.284 245.733C446.694 245.556 447.139 245.467 447.617 245.467C448.146 245.467 448.608 245.556 449.005 245.733C449.401 245.911 449.729 246.162 449.989 246.485C450.254 246.804 450.45 247.185 450.577 247.627C450.709 248.069 450.775 248.557 450.775 249.09V249.794H445.061V248.611H449.148V248.481C449.139 248.185 449.08 247.907 448.971 247.647C448.866 247.388 448.704 247.178 448.485 247.019C448.267 246.859 447.975 246.779 447.61 246.779C447.337 246.779 447.093 246.839 446.879 246.957C446.669 247.071 446.494 247.237 446.353 247.456C446.211 247.675 446.102 247.939 446.024 248.249C445.951 248.554 445.915 248.898 445.915 249.281V249.555C445.915 249.878 445.958 250.179 446.045 250.457C446.136 250.73 446.268 250.97 446.441 251.175C446.615 251.38 446.824 251.542 447.07 251.66C447.316 251.774 447.597 251.831 447.911 251.831C448.308 251.831 448.661 251.751 448.971 251.592C449.281 251.432 449.549 251.207 449.777 250.915L450.646 251.756C450.486 251.988 450.279 252.212 450.023 252.426C449.768 252.635 449.456 252.806 449.087 252.938C448.722 253.071 448.299 253.137 447.815 253.137ZM456.23 251.517V247.989C456.23 247.725 456.183 247.497 456.087 247.306C455.991 247.114 455.845 246.966 455.649 246.861C455.458 246.757 455.216 246.704 454.925 246.704C454.656 246.704 454.424 246.75 454.228 246.841C454.032 246.932 453.879 247.055 453.77 247.21C453.66 247.365 453.605 247.54 453.605 247.736H451.965C451.965 247.445 452.035 247.162 452.177 246.889C452.318 246.615 452.523 246.371 452.792 246.157C453.061 245.943 453.382 245.774 453.756 245.651C454.13 245.528 454.549 245.467 455.014 245.467C455.57 245.467 456.062 245.56 456.49 245.747C456.923 245.934 457.263 246.216 457.509 246.595C457.759 246.968 457.885 247.438 457.885 248.003V251.291C457.885 251.628 457.908 251.931 457.953 252.2C458.003 252.465 458.074 252.695 458.165 252.891V253H456.477C456.399 252.822 456.338 252.597 456.292 252.323C456.251 252.045 456.23 251.776 456.23 251.517ZM456.47 248.502L456.483 249.521H455.301C454.995 249.521 454.727 249.55 454.494 249.609C454.262 249.664 454.068 249.746 453.913 249.855C453.758 249.965 453.642 250.097 453.564 250.252C453.487 250.407 453.448 250.582 453.448 250.778C453.448 250.974 453.494 251.154 453.585 251.318C453.676 251.478 453.808 251.603 453.981 251.694C454.159 251.785 454.373 251.831 454.624 251.831C454.961 251.831 455.255 251.763 455.506 251.626C455.761 251.485 455.962 251.314 456.107 251.113C456.253 250.908 456.331 250.715 456.34 250.532L456.873 251.264C456.818 251.451 456.725 251.651 456.593 251.865C456.461 252.079 456.287 252.285 456.073 252.48C455.864 252.672 455.611 252.829 455.314 252.952C455.023 253.075 454.686 253.137 454.303 253.137C453.82 253.137 453.389 253.041 453.011 252.85C452.632 252.654 452.336 252.392 452.122 252.063C451.908 251.731 451.801 251.355 451.801 250.936C451.801 250.544 451.874 250.197 452.02 249.896C452.17 249.591 452.389 249.336 452.676 249.131C452.967 248.926 453.323 248.771 453.742 248.666C454.161 248.557 454.64 248.502 455.178 248.502H456.47ZM461.241 247.183V253H459.594V245.604H461.146L461.241 247.183ZM460.947 249.028L460.414 249.021C460.419 248.497 460.492 248.017 460.633 247.579C460.779 247.142 460.979 246.766 461.234 246.451C461.494 246.137 461.804 245.895 462.164 245.727C462.524 245.553 462.925 245.467 463.367 245.467C463.723 245.467 464.044 245.517 464.331 245.617C464.623 245.713 464.871 245.87 465.076 246.089C465.286 246.308 465.445 246.592 465.555 246.943C465.664 247.29 465.719 247.716 465.719 248.222V253H464.064V248.215C464.064 247.859 464.012 247.579 463.907 247.374C463.807 247.164 463.659 247.016 463.463 246.93C463.271 246.839 463.032 246.793 462.745 246.793C462.463 246.793 462.21 246.852 461.986 246.971C461.763 247.089 461.574 247.251 461.419 247.456C461.269 247.661 461.152 247.898 461.07 248.167C460.988 248.436 460.947 248.723 460.947 249.028ZM470.661 253.137C470.114 253.137 469.62 253.048 469.178 252.87C468.74 252.688 468.367 252.435 468.057 252.111C467.751 251.788 467.517 251.407 467.353 250.97C467.188 250.532 467.106 250.061 467.106 249.555V249.281C467.106 248.702 467.191 248.178 467.359 247.709C467.528 247.24 467.763 246.839 468.063 246.506C468.364 246.169 468.72 245.911 469.13 245.733C469.54 245.556 469.984 245.467 470.463 245.467C470.992 245.467 471.454 245.556 471.851 245.733C472.247 245.911 472.575 246.162 472.835 246.485C473.099 246.804 473.295 247.185 473.423 247.627C473.555 248.069 473.621 248.557 473.621 249.09V249.794H467.906V248.611H471.994V248.481C471.985 248.185 471.926 247.907 471.816 247.647C471.712 247.388 471.55 247.178 471.331 247.019C471.112 246.859 470.821 246.779 470.456 246.779C470.183 246.779 469.939 246.839 469.725 246.957C469.515 247.071 469.34 247.237 469.198 247.456C469.057 247.675 468.948 247.939 468.87 248.249C468.797 248.554 468.761 248.898 468.761 249.281V249.555C468.761 249.878 468.804 250.179 468.891 250.457C468.982 250.73 469.114 250.97 469.287 251.175C469.46 251.38 469.67 251.542 469.916 251.66C470.162 251.774 470.442 251.831 470.757 251.831C471.153 251.831 471.507 251.751 471.816 251.592C472.126 251.432 472.395 251.207 472.623 250.915L473.491 251.756C473.332 251.988 473.124 252.212 472.869 252.426C472.614 252.635 472.302 252.806 471.933 252.938C471.568 253.071 471.144 253.137 470.661 253.137ZM476.561 247.012V253H474.913V245.604H476.485L476.561 247.012ZM478.823 245.556L478.81 247.087C478.709 247.069 478.6 247.055 478.481 247.046C478.368 247.037 478.254 247.032 478.14 247.032C477.857 247.032 477.609 247.073 477.395 247.155C477.18 247.233 477 247.347 476.854 247.497C476.713 247.643 476.604 247.821 476.526 248.03C476.449 248.24 476.403 248.475 476.39 248.734L476.014 248.762C476.014 248.297 476.059 247.866 476.15 247.47C476.242 247.073 476.378 246.725 476.561 246.424C476.747 246.123 476.98 245.888 477.258 245.72C477.54 245.551 477.866 245.467 478.235 245.467C478.336 245.467 478.443 245.476 478.557 245.494C478.675 245.512 478.764 245.533 478.823 245.556Z" fill="#1E1E1E"/>
</g>
<g filter="url(#filter7_d_1295_187313)">
<rect x="549" y="152" width="156" height="120" rx="5" fill="white"/>
<line opacity="0.3" x1="558" y1="223.75" x2="696" y2="223.75" stroke="#383838" stroke-width="0.5"/>
</g>
</g>
<defs>
<filter id="filter0_d_1295_187313" x="-7.6" y="-20.6" width="237.2" height="201.2" filterUnits="userSpaceOnUse" color-interpolation-filters="sRGB">
<feFlood flood-opacity="0" result="BackgroundImageFix"/>
<feColorMatrix in="SourceAlpha" type="matrix" values="0 0 0 0 0 0 0 0 0 0 0 0 0 0 0 0 0 0 127 0" result="hardAlpha"/>
<feOffset dy="4"/>
<feGaussianBlur stdDeviation="20.3"/>
<feComposite in2="hardAlpha" operator="out"/>
<feColorMatrix type="matrix" values="0 0 0 0 0 0 0 0 0 0 0 0 0 0 0 0 0 0 0.08 0"/>
<feBlend mode="normal" in2="BackgroundImageFix" result="effect1_dropShadow_1295_187313"/>
<feBlend mode="normal" in="SourceGraphic" in2="effect1_dropShadow_1295_187313" result="shape"/>
</filter>
<filter id="filter1_d_1295_187313" x="164.4" y="-20.6" width="237.2" height="201.2" filterUnits="userSpaceOnUse" color-interpolation-filters="sRGB">
<feFlood flood-opacity="0" result="BackgroundImageFix"/>
<feColorMatrix in="SourceAlpha" type="matrix" values="0 0 0 0 0 0 0 0 0 0 0 0 0 0 0 0 0 0 127 0" result="hardAlpha"/>
<feOffset dy="4"/>
<feGaussianBlur stdDeviation="20.3"/>
<feComposite in2="hardAlpha" operator="out"/>
<feColorMatrix type="matrix" values="0 0 0 0 0 0 0 0 0 0 0 0 0 0 0 0 0 0 0.08 0"/>
<feBlend mode="normal" in2="BackgroundImageFix" result="effect1_dropShadow_1295_187313"/>
<feBlend mode="normal" in="SourceGraphic" in2="effect1_dropShadow_1295_187313" result="shape"/>
</filter>
<filter id="filter2_d_1295_187313" x="336.4" y="-20.6" width="237.2" height="201.2" filterUnits="userSpaceOnUse" color-interpolation-filters="sRGB">
<feFlood flood-opacity="0" result="BackgroundImageFix"/>
<feColorMatrix in="SourceAlpha" type="matrix" values="0 0 0 0 0 0 0 0 0 0 0 0 0 0 0 0 0 0 127 0" result="hardAlpha"/>
<feOffset dy="4"/>
<feGaussianBlur stdDeviation="20.3"/>
<feComposite in2="hardAlpha" operator="out"/>
<feColorMatrix type="matrix" values="0 0 0 0 0 0 0 0 0 0 0 0 0 0 0 0 0 0 0.08 0"/>
<feBlend mode="normal" in2="BackgroundImageFix" result="effect1_dropShadow_1295_187313"/>
<feBlend mode="normal" in="SourceGraphic" in2="effect1_dropShadow_1295_187313" result="shape"/>
</filter>
<filter id="filter3_d_1295_187313" x="541" y="12" width="172" height="136" filterUnits="userSpaceOnUse" color-interpolation-filters="sRGB">
<feFlood flood-opacity="0" result="BackgroundImageFix"/>
<feColorMatrix in="SourceAlpha" type="matrix" values="0 0 0 0 0 0 0 0 0 0 0 0 0 0 0 0 0 0 127 0" result="hardAlpha"/>
<feOffset dy="4"/>
<feGaussianBlur stdDeviation="4"/>
<feComposite in2="hardAlpha" operator="out"/>
<feColorMatrix type="matrix" values="0 0 0 0 0 0 0 0 0 0 0 0 0 0 0 0 0 0 0.08 0"/>
<feBlend mode="normal" in2="BackgroundImageFix" result="effect1_dropShadow_1295_187313"/>
<feBlend mode="normal" in="SourceGraphic" in2="effect1_dropShadow_1295_187313" result="shape"/>
</filter>
<filter id="filter4_d_1295_187313" x="-7.6" y="115.4" width="237.2" height="201.2" filterUnits="userSpaceOnUse" color-interpolation-filters="sRGB">
<feFlood flood-opacity="0" result="BackgroundImageFix"/>
<feColorMatrix in="SourceAlpha" type="matrix" values="0 0 0 0 0 0 0 0 0 0 0 0 0 0 0 0 0 0 127 0" result="hardAlpha"/>
<feOffset dy="4"/>
<feGaussianBlur stdDeviation="20.3"/>
<feComposite in2="hardAlpha" operator="out"/>
<feColorMatrix type="matrix" values="0 0 0 0 0 0 0 0 0 0 0 0 0 0 0 0 0 0 0.08 0"/>
<feBlend mode="normal" in2="BackgroundImageFix" result="effect1_dropShadow_1295_187313"/>
<feBlend mode="normal" in="SourceGraphic" in2="effect1_dropShadow_1295_187313" result="shape"/>
</filter>
<filter id="filter5_d_1295_187313" x="164.4" y="115.4" width="237.2" height="201.2" filterUnits="userSpaceOnUse" color-interpolation-filters="sRGB">
<feFlood flood-opacity="0" result="BackgroundImageFix"/>
<feColorMatrix in="SourceAlpha" type="matrix" values="0 0 0 0 0 0 0 0 0 0 0 0 0 0 0 0 0 0 127 0" result="hardAlpha"/>
<feOffset dy="4"/>
<feGaussianBlur stdDeviation="20.3"/>
<feComposite in2="hardAlpha" operator="out"/>
<feColorMatrix type="matrix" values="0 0 0 0 0 0 0 0 0 0 0 0 0 0 0 0 0 0 0.08 0"/>
<feBlend mode="normal" in2="BackgroundImageFix" result="effect1_dropShadow_1295_187313"/>
<feBlend mode="normal" in="SourceGraphic" in2="effect1_dropShadow_1295_187313" result="shape"/>
</filter>
<filter id="filter6_d_1295_187313" x="336.4" y="115.4" width="237.2" height="201.2" filterUnits="userSpaceOnUse" color-interpolation-filters="sRGB">
<feFlood flood-opacity="0" result="BackgroundImageFix"/>
<feColorMatrix in="SourceAlpha" type="matrix" values="0 0 0 0 0 0 0 0 0 0 0 0 0 0 0 0 0 0 127 0" result="hardAlpha"/>
<feOffset dy="4"/>
<feGaussianBlur stdDeviation="20.3"/>
<feComposite in2="hardAlpha" operator="out"/>
<feColorMatrix type="matrix" values="0 0 0 0 0 0 0 0 0 0 0 0 0 0 0 0 0 0 0.08 0"/>
<feBlend mode="normal" in2="BackgroundImageFix" result="effect1_dropShadow_1295_187313"/>
<feBlend mode="normal" in="SourceGraphic" in2="effect1_dropShadow_1295_187313" result="shape"/>
</filter>
<filter id="filter7_d_1295_187313" x="541" y="148" width="172" height="136" filterUnits="userSpaceOnUse" color-interpolation-filters="sRGB">
<feFlood flood-opacity="0" result="BackgroundImageFix"/>
<feColorMatrix in="SourceAlpha" type="matrix" values="0 0 0 0 0 0 0 0 0 0 0 0 0 0 0 0 0 0 127 0" result="hardAlpha"/>
<feOffset dy="4"/>
<feGaussianBlur stdDeviation="4"/>
<feComposite in2="hardAlpha" operator="out"/>
<feColorMatrix type="matrix" values="0 0 0 0 0 0 0 0 0 0 0 0 0 0 0 0 0 0 0.08 0"/>
<feBlend mode="normal" in2="BackgroundImageFix" result="effect1_dropShadow_1295_187313"/>
<feBlend mode="normal" in="SourceGraphic" in2="effect1_dropShadow_1295_187313" result="shape"/>
</filter>
</defs>
</svg>
