<svg width="24" height="25" viewBox="0 0 24 25" fill="none" xmlns="http://www.w3.org/2000/svg">
<path d="M16.5 6.35889H13.5C12.9477 6.35889 12.5 6.80661 12.5 7.35889V10.3589H16.5C16.6137 10.3564 16.7216 10.4093 16.7892 10.5008C16.8568 10.5923 16.8758 10.7109 16.84 10.8189L16.1 13.0189C16.0318 13.2208 15.8431 13.3573 15.63 13.3589H12.5V20.8589C12.5 21.135 12.2761 21.3589 12 21.3589H9.5C9.22386 21.3589 9 21.135 9 20.8589V13.3589H7.5C7.22386 13.3589 7 13.135 7 12.8589V10.8589C7 10.5828 7.22386 10.3589 7.5 10.3589H9V7.35889C9 5.14975 10.7909 3.35889 13 3.35889H16.5C16.7761 3.35889 17 3.58275 17 3.85889V5.85889C17 6.13503 16.7761 6.35889 16.5 6.35889Z" fill="#002478"/>
</svg>
