<svg width="153" height="44" viewBox="0 0 153 44" fill="none" xmlns="http://www.w3.org/2000/svg">
<path d="M146.974 44H5.94864C2.84749 44 0.307617 41.5236 0.307617 38.5V5.5C0.307617 2.47638 2.84749 3.8147e-06 5.94864 3.8147e-06H146.974C150.075 3.8147e-06 152.615 2.47638 152.615 5.5V38.5C152.615 41.5236 150.075 44 146.974 44Z" fill="black"/>
<path d="M11.2354 8.29273C10.904 8.63098 10.7122 9.1576 10.7122 9.8396V34.1661C10.7122 34.8481 10.904 35.3747 11.2354 35.713L11.3172 35.7872L25.2984 22.161V21.8392L11.3172 8.21298L11.2354 8.29273Z" fill="white"/>
<path d="M31.6448 26.7053L26.9895 22.1609V21.8392L31.6504 17.2948L31.7548 17.3539L37.2745 20.4161C38.8498 21.2851 38.8498 22.7151 37.2745 23.5896L31.7548 26.6462L31.6448 26.7053Z" fill="white"/>
<path d="M30.9089 27.4923L26.1436 22.8462L12.0806 36.559C12.6038 37.0953 13.457 37.1599 14.4272 36.6237L30.9089 27.4923Z" fill="white"/>
<path d="M30.9089 16.5077L14.4272 7.37631C13.457 6.84556 12.6038 6.91019 12.0806 7.44644L26.1436 21.1538L30.9089 16.5077Z" fill="white"/>
<path d="M53.8067 11.2681C53.8067 12.1866 53.5246 12.9223 52.969 13.4709C52.3301 14.1213 51.4981 14.4485 50.4785 14.4485C49.504 14.4485 48.6719 14.1158 47.9894 13.4599C47.3054 12.7944 46.9641 11.9776 46.9641 11C46.9641 10.0224 47.3054 9.20564 47.9894 8.54564C48.6719 7.88426 49.504 7.55151 50.4785 7.55151C50.9636 7.55151 51.4262 7.64914 51.8676 7.83064C52.3076 8.01351 52.6658 8.26101 52.9253 8.56626L52.3358 9.14651C51.8831 8.62539 51.2668 8.36826 50.4785 8.36826C49.7677 8.36826 49.1514 8.61026 48.6282 9.09839C48.1107 9.58789 47.8512 10.2218 47.8512 11C47.8512 11.7783 48.1107 12.4176 48.6282 12.9071C49.1514 13.3898 49.7677 13.6373 50.4785 13.6373C51.233 13.6373 51.8676 13.3898 52.3682 12.9016C52.6982 12.5785 52.8858 12.133 52.9351 11.5638H50.4785V10.769H53.7559C53.7954 10.9409 53.8067 11.1073 53.8067 11.2681Z" fill="white"/>
<path d="M59.0055 8.51263H55.927V10.6026H58.7023V11.3974H55.927V13.4874H59.0055V14.2973H55.0554V7.70276H59.0055V8.51263Z" fill="white"/>
<path d="M62.6764 14.2973H61.8048V8.51263H59.9165V7.70276H64.5661V8.51263H62.6764V14.2973Z" fill="white"/>
<path d="M67.9307 14.2973V7.70276H68.8008V14.2973H67.9307Z" fill="white"/>
<path d="M72.6583 14.2973H71.7938V8.51263H69.8984V7.70276H74.5537V8.51263H72.6583V14.2973Z" fill="white"/>
<path d="M83.3559 13.4489C82.6889 14.1158 81.8625 14.4485 80.8767 14.4485C79.8853 14.4485 79.0589 14.1158 78.3918 13.4489C77.7262 12.7834 77.3948 11.9666 77.3948 11C77.3948 10.0334 77.7262 9.21664 78.3918 8.55114C79.0589 7.88426 79.8853 7.55151 80.8767 7.55151C81.8568 7.55151 82.6832 7.88426 83.3503 8.55664C84.0216 9.22764 84.353 10.0389 84.353 11C84.353 11.9666 84.0216 12.7834 83.3559 13.4489ZM79.0363 12.8961C79.5384 13.3898 80.149 13.6373 80.8767 13.6373C81.5987 13.6373 82.215 13.3898 82.7114 12.8961C83.2121 12.4025 83.4659 11.7686 83.4659 11C83.4659 10.2314 83.2121 9.59751 82.7114 9.10389C82.215 8.61026 81.5987 8.36276 80.8767 8.36276C80.149 8.36276 79.5384 8.61026 79.0363 9.10389C78.5357 9.59751 78.2818 10.2314 78.2818 11C78.2818 11.7686 78.5357 12.4025 79.0363 12.8961Z" fill="white"/>
<path d="M85.5764 14.2973V7.70276H86.6341L89.9228 12.8315H89.9609L89.9228 11.5638V7.70276H90.793V14.2973H89.8847L86.4409 8.91551H86.4028L86.4409 10.1888V14.2973H85.5764Z" fill="white"/>
<path d="M77.1805 23.9281C74.5307 23.9281 72.3659 25.8943 72.3659 28.6072C72.3659 31.2981 74.5307 33.285 77.1805 33.285C79.836 33.285 82.0008 31.2981 82.0008 28.6072C82.0008 25.8943 79.836 23.9281 77.1805 23.9281ZM77.1805 31.4425C75.7265 31.4425 74.4757 30.2723 74.4757 28.6072C74.4757 26.9201 75.7265 25.7706 77.1805 25.7706C78.6345 25.7706 79.891 26.9201 79.891 28.6072C79.891 30.2723 78.6345 31.4425 77.1805 31.4425ZM66.6755 23.9281C64.02 23.9281 61.8609 25.8943 61.8609 28.6072C61.8609 31.2981 64.02 33.285 66.6755 33.285C69.3296 33.285 71.4901 31.2981 71.4901 28.6072C71.4901 25.8943 69.3296 23.9281 66.6755 23.9281ZM66.6755 31.4425C65.2201 31.4425 63.965 30.2723 63.965 28.6072C63.965 26.9201 65.2201 25.7706 66.6755 25.7706C68.1295 25.7706 69.3804 26.9201 69.3804 28.6072C69.3804 30.2723 68.1295 31.4425 66.6755 31.4425ZM54.175 25.3622V27.3505H59.0446C58.9022 28.4615 58.5214 29.2782 57.9376 29.8475C57.2268 30.535 56.1198 31.2981 54.175 31.2981C51.1782 31.2981 48.8316 28.94 48.8316 26.0181C48.8316 23.0962 51.1782 20.7381 54.175 20.7381C55.7954 20.7381 56.9744 21.3555 57.8445 22.1557L59.2816 20.7546C58.0645 19.6216 56.4455 18.7512 54.175 18.7512C50.0655 18.7512 46.6118 22.0114 46.6118 26.0181C46.6118 30.0248 50.0655 33.285 54.175 33.285C56.3962 33.285 58.0645 32.5755 59.376 31.2445C60.72 29.9341 61.1389 28.0916 61.1389 26.6038C61.1389 26.1418 61.0994 25.717 61.0289 25.3622H54.175ZM105.291 26.9036C104.895 25.8572 103.672 23.9281 101.182 23.9281C98.7137 23.9281 96.659 25.8242 96.659 28.6072C96.659 31.228 98.6926 33.285 101.419 33.285C103.623 33.285 104.895 31.9746 105.418 31.2115L103.782 30.1486C103.236 30.9268 102.493 31.4425 101.419 31.4425C100.351 31.4425 99.5853 30.9653 99.0945 30.0248L105.513 27.4357L105.291 26.9036ZM98.7476 28.4615C98.6926 26.6575 100.185 25.7335 101.254 25.7335C102.091 25.7335 102.802 26.1418 103.039 26.7262L98.7476 28.4615ZM93.531 33.0003H95.6408V19.2504H93.531V33.0003ZM90.0759 24.9703H90.0054C89.5315 24.4231 88.6276 23.9281 87.4824 23.9281C85.0794 23.9281 82.8822 25.9851 82.8822 28.6223C82.8822 31.2445 85.0794 33.285 87.4824 33.285C88.6276 33.285 89.5315 32.7858 90.0054 32.2221H90.0759V32.8931C90.0759 34.682 89.0958 35.6431 87.5149 35.6431C86.2259 35.6431 85.4263 34.7356 85.0963 33.9725L83.2615 34.7191C83.7904 35.9593 85.1908 37.4856 87.5149 37.4856C89.9885 37.4856 92.0756 36.0666 92.0756 32.614V24.2127H90.0759V24.9703ZM87.663 31.4425C86.209 31.4425 84.9919 30.2558 84.9919 28.6223C84.9919 26.9737 86.209 25.7706 87.663 25.7706C89.0958 25.7706 90.2254 26.9737 90.2254 28.6223C90.2254 30.2558 89.0958 31.4425 87.663 31.4425ZM115.169 19.2504H110.123V33.0003H112.227V27.7905H115.169C117.505 27.7905 119.797 26.1418 119.797 23.5197C119.797 20.899 117.5 19.2504 115.169 19.2504ZM115.224 25.8778H112.227V21.163H115.224C116.795 21.163 117.692 22.4348 117.692 23.5197C117.692 24.584 116.795 25.8778 115.224 25.8778ZM128.23 23.902C126.71 23.902 125.129 24.5565 124.479 26.0071L126.346 26.7702C126.748 26.0071 127.487 25.7596 128.268 25.7596C129.36 25.7596 130.467 26.399 130.484 27.5278V27.6722C130.103 27.4577 129.288 27.1401 128.285 27.1401C126.274 27.1401 124.225 28.2195 124.225 30.2338C124.225 32.0763 125.872 33.263 127.724 33.263C129.14 33.263 129.921 32.6401 130.412 31.9155H130.484V32.9783H132.516V27.7038C132.516 25.266 130.649 23.902 128.23 23.902ZM127.977 31.437C127.288 31.437 126.329 31.1042 126.329 30.2723C126.329 29.2081 127.525 28.7997 128.56 28.7997C129.487 28.7997 129.921 28.9991 130.484 29.2617C130.319 30.535 129.195 31.437 127.977 31.437ZM139.92 24.2031L137.501 30.1637H137.429L134.929 24.2031H132.66L136.417 32.5328L134.273 37.168H136.472L142.261 24.2031H139.92ZM120.953 33.0003H123.063V19.2504H120.953V33.0003Z" fill="white"/>
</svg>
