<svg width="153" height="44" viewBox="0 0 153 44" fill="none" xmlns="http://www.w3.org/2000/svg">
<path d="M147.167 44H6.14103C3.03987 44 0.5 41.5236 0.5 38.5V5.5C0.5 2.47638 3.03987 3.8147e-06 6.14103 3.8147e-06H147.167C150.268 3.8147e-06 152.808 2.47638 152.808 5.5V38.5C152.808 41.5236 150.268 44 147.167 44Z" fill="white"/>
<path d="M11.4277 8.29273C11.0963 8.63098 10.9045 9.1576 10.9045 9.8396V34.1661C10.9045 34.8481 11.0963 35.3747 11.4277 35.713L11.5095 35.7872L25.4908 22.161V21.8392L11.5095 8.21298L11.4277 8.29273Z" fill="#002478"/>
<path d="M31.8371 26.7053L27.1819 22.1609V21.8392L31.8428 17.2948L31.9471 17.3539L37.4669 20.4161C39.0421 21.2851 39.0421 22.7151 37.4669 23.5896L31.9471 26.6462L31.8371 26.7053Z" fill="#002478"/>
<path d="M31.1013 27.4923L26.336 22.8462L12.2729 36.559C12.7962 37.0953 13.6494 37.1599 14.6196 36.6237L31.1013 27.4923Z" fill="#002478"/>
<path d="M31.1013 16.5077L14.6196 7.37631C13.6494 6.84556 12.7962 6.91019 12.2729 7.44644L26.336 21.1538L31.1013 16.5077Z" fill="#002478"/>
<path d="M53.9991 11.2681C53.9991 12.1866 53.717 12.9223 53.1614 13.4709C52.5225 14.1213 51.6905 14.4485 50.6709 14.4485C49.6964 14.4485 48.8643 14.1158 48.1817 13.4599C47.4978 12.7944 47.1565 11.9776 47.1565 11C47.1565 10.0224 47.4978 9.20564 48.1817 8.54564C48.8643 7.88426 49.6964 7.55151 50.6709 7.55151C51.156 7.55151 51.6185 7.64914 52.06 7.83064C52.5 8.01351 52.8582 8.26101 53.1176 8.56626L52.5282 9.14651C52.0755 8.62539 51.4592 8.36826 50.6709 8.36826C49.9601 8.36826 49.3438 8.61026 48.8206 9.09839C48.303 9.58789 48.0435 10.2218 48.0435 11C48.0435 11.7783 48.303 12.4176 48.8206 12.9071C49.3438 13.3898 49.9601 13.6373 50.6709 13.6373C51.4253 13.6373 52.06 13.3898 52.5606 12.9016C52.8906 12.5785 53.0782 12.133 53.1275 11.5638H50.6709V10.769H53.9483C53.9878 10.9409 53.9991 11.1073 53.9991 11.2681Z" fill="#002478"/>
<path d="M59.1979 8.51263H56.1193V10.6026H58.8947V11.3974H56.1193V13.4874H59.1979V14.2973H55.2478V7.70276H59.1979V8.51263Z" fill="#002478"/>
<path d="M62.8688 14.2973H61.9972V8.51263H60.1089V7.70276H64.7585V8.51263H62.8688V14.2973Z" fill="#002478"/>
<path d="M68.123 14.2973V7.70276H68.9932V14.2973H68.123Z" fill="#002478"/>
<path d="M72.8507 14.2973H71.9862V8.51263H70.0908V7.70276H74.7461V8.51263H72.8507V14.2973Z" fill="#002478"/>
<path d="M83.5483 13.4489C82.8813 14.1158 82.0548 14.4485 81.0691 14.4485C80.0777 14.4485 79.2513 14.1158 78.5842 13.4489C77.9186 12.7834 77.5872 11.9666 77.5872 11C77.5872 10.0334 77.9186 9.21664 78.5842 8.55114C79.2513 7.88426 80.0777 7.55151 81.0691 7.55151C82.0492 7.55151 82.8756 7.88426 83.5427 8.55664C84.214 9.22764 84.5454 10.0389 84.5454 11C84.5454 11.9666 84.214 12.7834 83.5483 13.4489ZM79.2287 12.8961C79.7308 13.3898 80.3414 13.6373 81.0691 13.6373C81.7911 13.6373 82.4074 13.3898 82.9038 12.8961C83.4045 12.4025 83.6583 11.7686 83.6583 11C83.6583 10.2314 83.4045 9.59751 82.9038 9.10389C82.4074 8.61026 81.7911 8.36276 81.0691 8.36276C80.3414 8.36276 79.7308 8.61026 79.2287 9.10389C78.7281 9.59751 78.4742 10.2314 78.4742 11C78.4742 11.7686 78.7281 12.4025 79.2287 12.8961Z" fill="#002478"/>
<path d="M85.7688 14.2973V7.70276H86.8265L90.1152 12.8315H90.1533L90.1152 11.5638V7.70276H90.9853V14.2973H90.0771L86.6333 8.91551H86.5952L86.6333 10.1888V14.2973H85.7688Z" fill="#002478"/>
<path d="M77.3729 23.9281C74.723 23.9281 72.5583 25.8943 72.5583 28.6072C72.5583 31.2981 74.723 33.285 77.3729 33.285C80.0284 33.285 82.1932 31.2981 82.1932 28.6072C82.1932 25.8943 80.0284 23.9281 77.3729 23.9281ZM77.3729 31.4425C75.9189 31.4425 74.668 30.2723 74.668 28.6072C74.668 26.9201 75.9189 25.7706 77.3729 25.7706C78.8269 25.7706 80.0834 26.9201 80.0834 28.6072C80.0834 30.2723 78.8269 31.4425 77.3729 31.4425ZM66.8679 23.9281C64.2124 23.9281 62.0533 25.8943 62.0533 28.6072C62.0533 31.2981 64.2124 33.285 66.8679 33.285C69.522 33.285 71.6825 31.2981 71.6825 28.6072C71.6825 25.8943 69.522 23.9281 66.8679 23.9281ZM66.8679 31.4425C65.4125 31.4425 64.1574 30.2723 64.1574 28.6072C64.1574 26.9201 65.4125 25.7706 66.8679 25.7706C68.3219 25.7706 69.5728 26.9201 69.5728 28.6072C69.5728 30.2723 68.3219 31.4425 66.8679 31.4425ZM54.3674 25.3622V27.3505H59.237C59.0946 28.4615 58.7138 29.2782 58.13 29.8475C57.4192 30.535 56.3121 31.2981 54.3674 31.2981C51.3706 31.2981 49.0239 28.94 49.0239 26.0181C49.0239 23.0962 51.3706 20.7381 54.3674 20.7381C55.9878 20.7381 57.1668 21.3555 58.0369 22.1557L59.4739 20.7546C58.2569 19.6216 56.6379 18.7512 54.3674 18.7512C50.2579 18.7512 46.8042 22.0114 46.8042 26.0181C46.8042 30.0248 50.2579 33.285 54.3674 33.285C56.5886 33.285 58.2569 32.5755 59.5684 31.2445C60.9124 29.9341 61.3312 28.0916 61.3312 26.6038C61.3312 26.1418 61.2918 25.717 61.2212 25.3622H54.3674ZM105.484 26.9036C105.087 25.8572 103.865 23.9281 101.374 23.9281C98.9061 23.9281 96.8514 25.8242 96.8514 28.6072C96.8514 31.228 98.8849 33.285 101.611 33.285C103.815 33.285 105.087 31.9746 105.61 31.2115L103.975 30.1486C103.429 30.9268 102.686 31.4425 101.611 31.4425C100.543 31.4425 99.7776 30.9653 99.2869 30.0248L105.705 27.4357L105.484 26.9036ZM98.94 28.4615C98.8849 26.6575 100.377 25.7335 101.446 25.7335C102.284 25.7335 102.994 26.1418 103.231 26.7262L98.94 28.4615ZM93.7234 33.0003H95.8332V19.2504H93.7234V33.0003ZM90.2683 24.9703H90.1978C89.7239 24.4231 88.82 23.9281 87.6748 23.9281C85.2718 23.9281 83.0746 25.9851 83.0746 28.6223C83.0746 31.2445 85.2718 33.285 87.6748 33.285C88.82 33.285 89.7239 32.7858 90.1978 32.2221H90.2683V32.8931C90.2683 34.682 89.2882 35.6431 87.7073 35.6431C86.4183 35.6431 85.6187 34.7356 85.2887 33.9725L83.4539 34.7191C83.9828 35.9593 85.3832 37.4856 87.7073 37.4856C90.1808 37.4856 92.268 36.0666 92.268 32.614V24.2127H90.2683V24.9703ZM87.8553 31.4425C86.4014 31.4425 85.1843 30.2558 85.1843 28.6223C85.1843 26.9737 86.4014 25.7706 87.8553 25.7706C89.2882 25.7706 90.4178 26.9737 90.4178 28.6223C90.4178 30.2558 89.2882 31.4425 87.8553 31.4425ZM115.361 19.2504H110.315V33.0003H112.419V27.7905H115.361C117.698 27.7905 119.989 26.1418 119.989 23.5197C119.989 20.899 117.692 19.2504 115.361 19.2504ZM115.416 25.8778H112.419V21.163H115.416C116.987 21.163 117.884 22.4348 117.884 23.5197C117.884 24.584 116.987 25.8778 115.416 25.8778ZM128.423 23.902C126.903 23.902 125.322 24.5565 124.671 26.0071L126.539 26.7702C126.941 26.0071 127.68 25.7596 128.461 25.7596C129.552 25.7596 130.659 26.399 130.676 27.5278V27.6722C130.296 27.4577 129.48 27.1401 128.478 27.1401C126.467 27.1401 124.418 28.2195 124.418 30.2338C124.418 32.0763 126.065 33.263 127.916 33.263C129.332 33.263 130.114 32.6401 130.604 31.9155H130.676V32.9783H132.709V27.7038C132.709 25.266 130.841 23.902 128.423 23.902ZM128.169 31.437C127.481 31.437 126.522 31.1042 126.522 30.2723C126.522 29.2081 127.718 28.7997 128.753 28.7997C129.679 28.7997 130.114 28.9991 130.676 29.2617C130.511 30.535 129.387 31.437 128.169 31.437ZM140.112 24.2031L137.694 30.1637H137.622L135.121 24.2031H132.852L136.609 32.5328L134.466 37.168H136.664L142.453 24.2031H140.112ZM121.146 33.0003H123.256V19.2504H121.146V33.0003Z" fill="#002478"/>
</svg>
