<svg width="24" height="25" viewBox="0 0 24 25" fill="none" xmlns="http://www.w3.org/2000/svg">
<path fill-rule="evenodd" clip-rule="evenodd" d="M16 3.35889H8C5.23858 3.35889 3 5.59747 3 8.35889V16.3589C3 19.1203 5.23858 21.3589 8 21.3589H16C18.7614 21.3589 21 19.1203 21 16.3589V8.35889C21 5.59747 18.7614 3.35889 16 3.35889ZM19.25 16.3589C19.2445 18.1515 17.7926 19.6034 16 19.6089H8C6.20735 19.6034 4.75549 18.1515 4.75 16.3589V8.35889C4.75549 6.56624 6.20735 5.11438 8 5.10889H16C17.7926 5.11438 19.2445 6.56624 19.25 8.35889V16.3589ZM16.75 8.60889C17.3023 8.60889 17.75 8.16117 17.75 7.60889C17.75 7.05661 17.3023 6.60889 16.75 6.60889C16.1977 6.60889 15.75 7.05661 15.75 7.60889C15.75 8.16117 16.1977 8.60889 16.75 8.60889ZM12 7.85889C9.51472 7.85889 7.5 9.87361 7.5 12.3589C7.5 14.8442 9.51472 16.8589 12 16.8589C14.4853 16.8589 16.5 14.8442 16.5 12.3589C16.5027 11.1646 16.0294 10.0185 15.1849 9.17397C14.3404 8.32948 13.1943 7.85623 12 7.85889ZM9.25 12.3589C9.25 13.8777 10.4812 15.1089 12 15.1089C13.5188 15.1089 14.75 13.8777 14.75 12.3589C14.75 10.8401 13.5188 9.60889 12 9.60889C10.4812 9.60889 9.25 10.8401 9.25 12.3589Z" fill="#002478"/>
</svg>
