<svg width="24" height="25" viewBox="0 0 24 25" fill="none" xmlns="http://www.w3.org/2000/svg">
<path fill-rule="evenodd" clip-rule="evenodd" d="M5 3.35889H19C20.1046 3.35889 21 4.25432 21 5.35889V19.3589C21 20.4635 20.1046 21.3589 19 21.3589H5C3.89543 21.3589 3 20.4635 3 19.3589V5.35889C3 4.25432 3.89543 3.35889 5 3.35889ZM8 18.3589C8.27614 18.3589 8.5 18.135 8.5 17.8589V10.8589C8.5 10.5828 8.27614 10.3589 8 10.3589H6.5C6.22386 10.3589 6 10.5828 6 10.8589V17.8589C6 18.135 6.22386 18.3589 6.5 18.3589H8ZM7.25 9.35889C6.42157 9.35889 5.75 8.68732 5.75 7.85889C5.75 7.03046 6.42157 6.35889 7.25 6.35889C8.07843 6.35889 8.75 7.03046 8.75 7.85889C8.75 8.68732 8.07843 9.35889 7.25 9.35889ZM17.5 18.3589C17.7761 18.3589 18 18.135 18 17.8589V13.2589C18.0325 11.6697 16.8576 10.3134 15.28 10.1189C14.177 10.0181 13.1083 10.5333 12.5 11.4589V10.8589C12.5 10.5828 12.2761 10.3589 12 10.3589H10.5C10.2239 10.3589 10 10.5828 10 10.8589V17.8589C10 18.135 10.2239 18.3589 10.5 18.3589H12C12.2761 18.3589 12.5 18.135 12.5 17.8589V14.1089C12.5 13.2805 13.1716 12.6089 14 12.6089C14.8284 12.6089 15.5 13.2805 15.5 14.1089V17.8589C15.5 18.135 15.7239 18.3589 16 18.3589H17.5Z" fill="#002478"/>
</svg>
