<svg width="24" height="25" viewBox="0 0 24 25" fill="none" xmlns="http://www.w3.org/2000/svg">
<path d="M20.9728 7.07629C20.5084 7.69581 19.947 8.23622 19.3103 8.67665C19.3103 8.83848 19.3103 9.00031 19.3103 9.17114C19.3154 12.11 18.1415 14.928 16.0518 16.9934C13.962 19.0588 11.1312 20.1988 8.19405 20.1578C6.49599 20.1635 4.81967 19.7758 3.29642 19.025C3.21428 18.9891 3.16131 18.9079 3.16162 18.8182V18.7193C3.16162 18.5902 3.26623 18.4856 3.39527 18.4856C5.06442 18.4305 6.67402 17.8518 7.99634 16.8313C6.48553 16.8008 5.12619 15.9058 4.5006 14.5296C4.46901 14.4545 4.47884 14.3682 4.52657 14.3021C4.57429 14.236 4.653 14.1996 4.73425 14.206C5.19342 14.2521 5.65718 14.2094 6.1002 14.0801C4.43239 13.7339 3.17921 12.3493 2.99986 10.6546C2.99349 10.5733 3.02992 10.4946 3.096 10.4468C3.16207 10.3991 3.24824 10.3892 3.32338 10.4209C3.77094 10.6184 4.25409 10.7224 4.74324 10.7265C3.28184 9.76735 2.65061 7.94294 3.20655 6.28511C3.26394 6.12402 3.40181 6.00501 3.5695 5.97183C3.73718 5.93864 3.90996 5.99617 4.02432 6.12328C5.99639 8.22214 8.70604 9.47285 11.5819 9.61168C11.5083 9.31774 11.4721 9.01565 11.4741 8.71261C11.501 7.12361 12.4842 5.7081 13.9634 5.12876C15.4425 4.54943 17.1249 4.92092 18.223 6.06933C18.9714 5.92674 19.695 5.67534 20.3707 5.3231C20.4202 5.2922 20.483 5.2922 20.5325 5.3231C20.5634 5.37262 20.5634 5.43541 20.5325 5.48493C20.2052 6.23441 19.6523 6.86301 18.9509 7.28308C19.5651 7.21185 20.1685 7.06696 20.7482 6.85153C20.797 6.81831 20.8611 6.81831 20.9099 6.85153C20.9508 6.87023 20.9814 6.906 20.9935 6.94931C21.0056 6.99262 20.998 7.03907 20.9728 7.07629Z" fill="#002478"/>
</svg>
